solid Untitled-5c5714dc
facet normal 4.887310435309825e-16 -1.725950771691885e-15 -1.0
  outer loop
    vertex 75.45348789440425 73.02763558027303 2.8199664825478975e-15
    vertex 78.67406503099826 67.57763558027303 1.4099832412739488e-14
    vertex 75.45348789440425 60.02763558027294 2.5379698342931078e-14
  endloop
endfacet
facet normal 4.887310435309825e-16 -1.725950771691885e-15 -1.0
  outer loop
    vertex 78.67406503099826 67.57763558027303 1.4099832412739488e-14
    vertex 75.45348789440425 73.02763558027303 2.8199664825478975e-15
    vertex 78.81709179133635 67.76403168334092 1.4099832412739488e-14
  endloop
endfacet
facet normal 4.887310435309825e-16 -1.725950771691885e-15 -1.0
  outer loop
    vertex 78.81709179133635 67.76403168334092 1.4099832412739488e-14
    vertex 75.45348789440425 73.02763558027303 2.8199664825478975e-15
    vertex 79.00348789440424 67.90705844367902 1.4099832412739488e-14
  endloop
endfacet
facet normal 4.887310435309825e-16 -1.725950771691885e-15 -1.0
  outer loop
    vertex 79.00348789440424 67.90705844367902 1.4099832412739488e-14
    vertex 75.45348789440425 73.02763558027303 2.8199664825478975e-15
    vertex 79.22055075381196 67.99696882393317 1.4099832412739488e-14
  endloop
endfacet
facet normal 4.887310435309825e-16 -1.725950771691885e-15 -1.0
  outer loop
    vertex 79.22055075381196 67.99696882393317 1.4099832412739488e-14
    vertex 75.45348789440425 73.02763558027303 2.8199664825478975e-15
    vertex 110.45348789440422 73.02763558027303 1.4099832412739488e-14
  endloop
endfacet
facet normal 4.887310435309825e-16 -1.725950771691885e-15 -1.0
  outer loop
    vertex 75.45348789440425 60.02763558027294 2.5379698342931078e-14
    vertex 78.67406503099826 67.57763558027303 1.4099832412739488e-14
    vertex 78.58415465074408 67.36057272086529 1.4099832412739488e-14
  endloop
endfacet
facet normal 4.887310435309825e-16 -1.725950771691885e-15 -1.0
  outer loop
    vertex 75.45348789440425 60.02763558027294 2.5379698342931078e-14
    vertex 78.58415465074408 67.36057272086529 1.4099832412739488e-14
    vertex 78.55348789440421 67.12763558027302 1.4099832412739488e-14
  endloop
endfacet
facet normal 4.887310435309825e-16 -1.725950771691885e-15 -1.0
  outer loop
    vertex 79.22055075381196 67.99696882393317 1.4099832412739488e-14
    vertex 110.45348789440422 73.02763558027303 1.4099832412739488e-14
    vertex 79.45348789440423 68.02763558027301 1.4099832412739488e-14
  endloop
endfacet
facet normal 4.887310435309825e-16 -1.725950771691885e-15 -1.0
  outer loop
    vertex 79.45348789440423 68.02763558027301 1.4099832412739488e-14
    vertex 110.45348789440422 73.02763558027303 1.4099832412739488e-14
    vertex 79.68642503499652 67.99696882393317 1.4099832412739488e-14
  endloop
endfacet
facet normal 4.887310435309825e-16 -1.725950771691885e-15 -1.0
  outer loop
    vertex 79.68642503499652 67.99696882393317 1.4099832412739488e-14
    vertex 110.45348789440422 73.02763558027303 1.4099832412739488e-14
    vertex 79.90348789440422 67.90705844367902 1.4099832412739488e-14
  endloop
endfacet
facet normal 4.887310435309825e-16 -1.725950771691885e-15 -1.0
  outer loop
    vertex 79.90348789440422 67.90705844367902 1.4099832412739488e-14
    vertex 110.45348789440422 73.02763558027303 1.4099832412739488e-14
    vertex 80.08988399747211 67.76403168334092 1.4099832412739488e-14
  endloop
endfacet
facet normal 4.887310435309825e-16 -1.725950771691885e-15 -1.0
  outer loop
    vertex 80.08988399747211 67.76403168334092 1.4099832412739488e-14
    vertex 110.45348789440422 73.02763558027303 1.4099832412739488e-14
    vertex 80.23291075781022 67.57763558027303 1.4099832412739488e-14
  endloop
endfacet
facet normal 4.887310435309825e-16 -1.725950771691885e-15 -1.0
  outer loop
    vertex 80.23291075781022 67.57763558027303 1.4099832412739488e-14
    vertex 110.45348789440422 73.02763558027303 1.4099832412739488e-14
    vertex 80.3228211380644 67.36057272086529 1.4099832412739488e-14
  endloop
endfacet
facet normal 4.887310435309825e-16 -1.725950771691885e-15 -1.0
  outer loop
    vertex 80.3228211380644 67.36057272086529 1.4099832412739488e-14
    vertex 110.45348789440422 73.02763558027303 1.4099832412739488e-14
    vertex 80.35348789440425 67.12763558027302 1.4099832412739488e-14
  endloop
endfacet
facet normal 4.887310435309825e-16 -1.725950771691885e-15 -1.0
  outer loop
    vertex 80.35348789440425 67.12763558027302 1.4099832412739488e-14
    vertex 110.45348789440422 73.02763558027303 1.4099832412739488e-14
    vertex 85.45348789440423 65.22763558027302 2.5379698342931078e-14
  endloop
endfacet
facet normal 4.887310435309825e-16 -1.725950771691885e-15 -1.0
  outer loop
    vertex 85.45348789440423 65.22763558027302 2.5379698342931078e-14
    vertex 110.45348789440422 73.02763558027303 1.4099832412739488e-14
    vertex 108.89508738975353 67.36057272086529 3.665956427312267e-14
  endloop
endfacet
facet normal 4.887310435309825e-16 -1.725950771691885e-15 -1.0
  outer loop
    vertex 85.45348789440423 65.22763558027302 2.5379698342931078e-14
    vertex 108.89508738975353 67.36057272086529 3.665956427312267e-14
    vertex 108.86442063341366 67.12763558027302 3.665956427312267e-14
  endloop
endfacet
facet normal 4.887310435309825e-16 -1.725950771691885e-15 -1.0
  outer loop
    vertex 108.89508738975353 67.36057272086529 3.665956427312267e-14
    vertex 110.45348789440422 73.02763558027303 1.4099832412739488e-14
    vertex 108.98499777000771 67.57763558027301 3.665956427312267e-14
  endloop
endfacet
facet normal 4.887310435309825e-16 -1.725950771691885e-15 -1.0
  outer loop
    vertex 108.98499777000771 67.57763558027301 3.665956427312267e-14
    vertex 110.45348789440422 73.02763558027303 1.4099832412739488e-14
    vertex 109.12802453034581 67.7640316833409 3.665956427312267e-14
  endloop
endfacet
facet normal 4.887310435309825e-16 -1.725950771691885e-15 -1.0
  outer loop
    vertex 109.12802453034581 67.7640316833409 3.665956427312267e-14
    vertex 110.45348789440422 73.02763558027303 1.4099832412739488e-14
    vertex 109.3144206334137 67.90705844367902 3.665956427312267e-14
  endloop
endfacet
facet normal 4.887310435309825e-16 -1.725950771691885e-15 -1.0
  outer loop
    vertex 109.3144206334137 67.90705844367902 3.665956427312267e-14
    vertex 110.45348789440422 73.02763558027303 1.4099832412739488e-14
    vertex 109.53148349282141 67.99696882393317 3.665956427312267e-14
  endloop
endfacet
facet normal 4.887310435309825e-16 -1.725950771691885e-15 -1.0
  outer loop
    vertex 109.53148349282141 67.99696882393317 3.665956427312267e-14
    vertex 110.45348789440422 73.02763558027303 1.4099832412739488e-14
    vertex 109.76442063341369 68.02763558027301 3.665956427312267e-14
  endloop
endfacet
facet normal 4.887310435309825e-16 -1.725950771691885e-15 -1.0
  outer loop
    vertex 109.76442063341369 68.02763558027301 3.665956427312267e-14
    vertex 110.45348789440422 73.02763558027303 1.4099832412739488e-14
    vertex 109.99735777400596 67.99696882393317 3.665956427312267e-14
  endloop
endfacet
facet normal 4.887310435309825e-16 -1.725950771691885e-15 -1.0
  outer loop
    vertex 109.99735777400596 67.99696882393317 3.665956427312267e-14
    vertex 110.45348789440422 73.02763558027303 1.4099832412739488e-14
    vertex 110.21442063341367 67.90705844367902 3.665956427312267e-14
  endloop
endfacet
facet normal 4.887310435309825e-16 -1.725950771691885e-15 -1.0
  outer loop
    vertex 110.21442063341367 67.90705844367902 3.665956427312267e-14
    vertex 110.45348789440422 73.02763558027303 1.4099832412739488e-14
    vertex 110.40081673648157 67.7640316833409 3.665956427312267e-14
  endloop
endfacet
facet normal 4.887310435309825e-16 -1.725950771691885e-15 -1.0
  outer loop
    vertex 110.40081673648157 67.7640316833409 3.665956427312267e-14
    vertex 110.45348789440422 73.02763558027303 1.4099832412739488e-14
    vertex 110.45348789440422 69.02763558027304 2.5379698342931078e-14
  endloop
endfacet
facet normal 4.887310435309825e-16 -1.725950771691885e-15 -1.0
  outer loop
    vertex 110.40081673648157 67.7640316833409 3.665956427312267e-14
    vertex 110.45348789440422 69.02763558027304 2.5379698342931078e-14
    vertex 110.54384349681966 67.57763558027301 3.665956427312267e-14
  endloop
endfacet
facet normal 4.887310435309825e-16 -1.725950771691885e-15 -1.0
  outer loop
    vertex 110.54384349681966 67.57763558027301 3.665956427312267e-14
    vertex 110.45348789440422 69.02763558027304 2.5379698342931078e-14
    vertex 111.21960942866184 69.02763558027301 3.3839597790574766e-14
  endloop
endfacet
facet normal 4.887310435309825e-16 -1.725950771691885e-15 -1.0
  outer loop
    vertex 110.54384349681966 67.57763558027301 3.665956427312267e-14
    vertex 111.21960942866184 69.02763558027301 3.3839597790574766e-14
    vertex 110.63375387707384 67.36057272086529 3.665956427312267e-14
  endloop
endfacet
facet normal 4.887310435309825e-16 -1.725950771691885e-15 -1.0
  outer loop
    vertex 110.63375387707384 67.36057272086529 3.665956427312267e-14
    vertex 111.21960942866184 69.02763558027301 3.3839597790574766e-14
    vertex 110.66442063341371 67.12763558027302 3.665956427312267e-14
  endloop
endfacet
facet normal 4.887310435309825e-16 -1.725950771691885e-15 -1.0
  outer loop
    vertex 85.45348789440423 65.22763558027302 2.5379698342931078e-14
    vertex 109.3144206334137 66.34821271686701 3.665956427312267e-14
    vertex 111.21960942866184 65.22763558027302 3.3839597790574766e-14
  endloop
endfacet
facet normal 4.887310435309825e-16 -1.725950771691885e-15 -1.0
  outer loop
    vertex 109.3144206334137 66.34821271686701 3.665956427312267e-14
    vertex 85.45348789440423 65.22763558027302 2.5379698342931078e-14
    vertex 109.12802453034581 66.49123947720514 3.665956427312267e-14
  endloop
endfacet
facet normal 4.887310435309825e-16 -1.725950771691885e-15 -1.0
  outer loop
    vertex 109.12802453034581 66.49123947720514 3.665956427312267e-14
    vertex 85.45348789440423 65.22763558027302 2.5379698342931078e-14
    vertex 108.98499777000771 66.67763558027303 3.665956427312267e-14
  endloop
endfacet
facet normal 4.887310435309825e-16 -1.725950771691885e-15 -1.0
  outer loop
    vertex 108.98499777000771 66.67763558027303 3.665956427312267e-14
    vertex 85.45348789440423 65.22763558027302 2.5379698342931078e-14
    vertex 108.89508738975353 66.89469843968074 3.665956427312267e-14
  endloop
endfacet
facet normal 4.887310435309825e-16 -1.725950771691885e-15 -1.0
  outer loop
    vertex 108.89508738975353 66.89469843968074 3.665956427312267e-14
    vertex 85.45348789440423 65.22763558027302 2.5379698342931078e-14
    vertex 108.86442063341366 67.12763558027302 3.665956427312267e-14
  endloop
endfacet
facet normal 4.887310435309825e-16 -1.725950771691885e-15 -1.0
  outer loop
    vertex 111.21960942866184 65.22763558027302 3.3839597790574766e-14
    vertex 109.3144206334137 66.34821271686701 3.665956427312267e-14
    vertex 109.53148349282141 66.25830233661286 3.665956427312267e-14
  endloop
endfacet
facet normal 4.887310435309825e-16 -1.725950771691885e-15 -1.0
  outer loop
    vertex 111.21960942866184 65.22763558027302 3.3839597790574766e-14
    vertex 109.53148349282141 66.25830233661286 3.665956427312267e-14
    vertex 109.76442063341369 66.22763558027302 3.665956427312267e-14
  endloop
endfacet
facet normal 4.887310435309825e-16 -1.725950771691885e-15 -1.0
  outer loop
    vertex 111.21960942866184 65.22763558027302 3.3839597790574766e-14
    vertex 109.76442063341369 66.22763558027302 3.665956427312267e-14
    vertex 109.99735777400596 66.25830233661286 3.665956427312267e-14
  endloop
endfacet
facet normal 4.887310435309825e-16 -1.725950771691885e-15 -1.0
  outer loop
    vertex 111.21960942866184 65.22763558027302 3.3839597790574766e-14
    vertex 109.99735777400596 66.25830233661286 3.665956427312267e-14
    vertex 110.21442063341367 66.34821271686701 3.665956427312267e-14
  endloop
endfacet
facet normal 4.887310435309825e-16 -1.725950771691885e-15 -1.0
  outer loop
    vertex 111.21960942866184 65.22763558027302 3.3839597790574766e-14
    vertex 110.21442063341367 66.34821271686701 3.665956427312267e-14
    vertex 110.40081673648157 66.49123947720514 3.665956427312267e-14
  endloop
endfacet
facet normal 4.887310435309825e-16 -1.725950771691885e-15 -1.0
  outer loop
    vertex 111.21960942866184 65.22763558027302 3.3839597790574766e-14
    vertex 110.40081673648157 66.49123947720514 3.665956427312267e-14
    vertex 110.54384349681966 66.67763558027303 3.665956427312267e-14
  endloop
endfacet
facet normal 4.887310435309825e-16 -1.725950771691885e-15 -1.0
  outer loop
    vertex 111.21960942866184 65.22763558027302 3.3839597790574766e-14
    vertex 110.54384349681966 66.67763558027303 3.665956427312267e-14
    vertex 110.63375387707384 66.89469843968074 3.665956427312267e-14
  endloop
endfacet
facet normal 4.887310435309825e-16 -1.725950771691885e-15 -1.0
  outer loop
    vertex 111.21960942866184 65.22763558027302 3.3839597790574766e-14
    vertex 110.63375387707384 66.89469843968074 3.665956427312267e-14
    vertex 110.66442063341371 67.12763558027302 3.665956427312267e-14
  endloop
endfacet
facet normal 4.887310435309825e-16 -1.725950771691885e-15 -1.0
  outer loop
    vertex 111.21960942866184 65.22763558027302 3.3839597790574766e-14
    vertex 110.66442063341371 67.12763558027302 3.665956427312267e-14
    vertex 111.21960942866184 69.02763558027301 3.3839597790574766e-14
  endloop
endfacet
facet normal 4.887310435309825e-16 -1.725950771691885e-15 -1.0
  outer loop
    vertex 75.45348789440425 60.02763558027294 2.5379698342931078e-14
    vertex 78.81709179133635 66.49123947720514 1.4099832412739488e-14
    vertex 85.45348789440423 60.02763558027294 2.5379698342931078e-14
  endloop
endfacet
facet normal 4.887310435309825e-16 -1.725950771691885e-15 -1.0
  outer loop
    vertex 78.81709179133635 66.49123947720514 1.4099832412739488e-14
    vertex 75.45348789440425 60.02763558027294 2.5379698342931078e-14
    vertex 78.67406503099826 66.67763558027303 1.4099832412739488e-14
  endloop
endfacet
facet normal 4.887310435309825e-16 -1.725950771691885e-15 -1.0
  outer loop
    vertex 78.67406503099826 66.67763558027303 1.4099832412739488e-14
    vertex 75.45348789440425 60.02763558027294 2.5379698342931078e-14
    vertex 78.58415465074408 66.89469843968075 1.4099832412739488e-14
  endloop
endfacet
facet normal 4.887310435309825e-16 -1.725950771691885e-15 -1.0
  outer loop
    vertex 78.58415465074408 66.89469843968075 1.4099832412739488e-14
    vertex 75.45348789440425 60.02763558027294 2.5379698342931078e-14
    vertex 78.55348789440421 67.12763558027302 1.4099832412739488e-14
  endloop
endfacet
facet normal 4.887310435309825e-16 -1.725950771691885e-15 -1.0
  outer loop
    vertex 85.45348789440423 60.02763558027294 2.5379698342931078e-14
    vertex 78.81709179133635 66.49123947720514 1.4099832412739488e-14
    vertex 79.00348789440424 66.34821271686704 1.4099832412739488e-14
  endloop
endfacet
facet normal 4.887310435309825e-16 -1.725950771691885e-15 -1.0
  outer loop
    vertex 85.45348789440423 60.02763558027294 2.5379698342931078e-14
    vertex 79.00348789440424 66.34821271686704 1.4099832412739488e-14
    vertex 79.22055075381196 66.25830233661286 1.4099832412739488e-14
  endloop
endfacet
facet normal 4.887310435309825e-16 -1.725950771691885e-15 -1.0
  outer loop
    vertex 85.45348789440423 60.02763558027294 2.5379698342931078e-14
    vertex 79.22055075381196 66.25830233661286 1.4099832412739488e-14
    vertex 79.45348789440423 66.22763558027302 1.4099832412739488e-14
  endloop
endfacet
facet normal 4.887310435309825e-16 -1.725950771691885e-15 -1.0
  outer loop
    vertex 85.45348789440423 60.02763558027294 2.5379698342931078e-14
    vertex 79.45348789440423 66.22763558027302 1.4099832412739488e-14
    vertex 79.68642503499652 66.25830233661286 1.4099832412739488e-14
  endloop
endfacet
facet normal 4.887310435309825e-16 -1.725950771691885e-15 -1.0
  outer loop
    vertex 85.45348789440423 60.02763558027294 2.5379698342931078e-14
    vertex 79.68642503499652 66.25830233661286 1.4099832412739488e-14
    vertex 79.90348789440422 66.34821271686704 1.4099832412739488e-14
  endloop
endfacet
facet normal 4.887310435309825e-16 -1.725950771691885e-15 -1.0
  outer loop
    vertex 85.45348789440423 60.02763558027294 2.5379698342931078e-14
    vertex 79.90348789440422 66.34821271686704 1.4099832412739488e-14
    vertex 80.08988399747211 66.49123947720514 1.4099832412739488e-14
  endloop
endfacet
facet normal 4.887310435309825e-16 -1.725950771691885e-15 -1.0
  outer loop
    vertex 85.45348789440423 60.02763558027294 2.5379698342931078e-14
    vertex 80.08988399747211 66.49123947720514 1.4099832412739488e-14
    vertex 80.23291075781022 66.67763558027303 1.4099832412739488e-14
  endloop
endfacet
facet normal 4.887310435309825e-16 -1.725950771691885e-15 -1.0
  outer loop
    vertex 85.45348789440423 60.02763558027294 2.5379698342931078e-14
    vertex 80.23291075781022 66.67763558027303 1.4099832412739488e-14
    vertex 80.3228211380644 66.89469843968075 1.4099832412739488e-14
  endloop
endfacet
facet normal 4.887310435309825e-16 -1.725950771691885e-15 -1.0
  outer loop
    vertex 85.45348789440423 60.02763558027294 2.5379698342931078e-14
    vertex 80.3228211380644 66.89469843968075 1.4099832412739488e-14
    vertex 80.35348789440425 67.12763558027302 1.4099832412739488e-14
  endloop
endfacet
facet normal 4.887310435309825e-16 -1.725950771691885e-15 -1.0
  outer loop
    vertex 85.45348789440423 60.02763558027294 2.5379698342931078e-14
    vertex 80.35348789440425 67.12763558027302 1.4099832412739488e-14
    vertex 85.45348789440423 65.22763558027302 2.5379698342931078e-14
  endloop
endfacet
facet normal 1.0 0.0 -1.340928946567171e-14
  outer loop
    vertex 120.5644206334137 69.02763558027301 4.135208462292348
    vertex 120.56442063341376 65.22763558027302 7.500000000000136
    vertex 120.5644206334137 65.22763558027302 4.135208462292348
  endloop
endfacet
facet normal 1.0 0.0 -1.340928946567171e-14
  outer loop
    vertex 120.56442063341376 65.22763558027302 7.500000000000136
    vertex 120.5644206334137 69.02763558027301 4.135208462292348
    vertex 120.56442063341376 69.02763558027301 7.500000000000136
  endloop
endfacet
facet normal 0.13052619222004871 1.092482456565699e-15 0.9914448613738109
  outer loop
    vertex 120.56442063341376 65.22763558027302 7.500000000000136
    vertex 119.24444350339088 69.02763558027301 7.67377828592589
    vertex 119.24444350339088 65.22763558027302 7.67377828592589
  endloop
endfacet
facet normal 0.13052619222004871 1.092482456565699e-15 0.9914448613738109
  outer loop
    vertex 119.24444350339088 69.02763558027301 7.67377828592589
    vertex 120.56442063341376 65.22763558027302 7.500000000000136
    vertex 120.56442063341376 69.02763558027301 7.500000000000136
  endloop
endfacet
facet normal 0.3826834323650949 9.63334788728217e-16 0.9238795325112846
  outer loop
    vertex 119.24444350339088 65.22763558027302 7.67377828592589
    vertex 118.01442063341375 69.02763558027301 8.183270440699502
    vertex 118.01442063341375 65.227635580273 8.183270440699502
  endloop
endfacet
facet normal 0.3826834323650949 9.63334788728217e-16 0.9238795325112846
  outer loop
    vertex 118.01442063341375 69.02763558027301 8.183270440699502
    vertex 119.24444350339088 65.22763558027302 7.67377828592589
    vertex 119.24444350339088 69.02763558027301 7.67377828592589
  endloop
endfacet
facet normal 0.6087614290087157 7.685374470249299e-16 0.793353340291239
  outer loop
    vertex 118.01442063341375 65.227635580273 8.183270440699502
    vertex 116.95817604936234 69.02763558027301 8.993755415948746
    vertex 116.95817604936234 65.22763558027302 8.993755415948756
  endloop
endfacet
facet normal 0.6087614290087157 7.685374470249299e-16 0.793353340291239
  outer loop
    vertex 116.95817604936234 69.02763558027301 8.993755415948746
    vertex 118.01442063341375 65.227635580273 8.183270440699502
    vertex 118.01442063341375 69.02763558027301 8.183270440699502
  endloop
endfacet
facet normal 0.7933533402912476 5.213655483750412e-16 0.6087614290087044
  outer loop
    vertex 116.95817604936234 69.02763558027301 8.993755415948746
    vertex 116.14769107411313 65.22763558027302 10.050000000000143
    vertex 116.95817604936234 65.22763558027302 8.993755415948756
  endloop
endfacet
facet normal 0.7933533402912476 5.213655483750412e-16 0.6087614290087044
  outer loop
    vertex 116.14769107411313 65.22763558027302 10.050000000000143
    vertex 116.95817604936234 69.02763558027301 8.993755415948746
    vertex 116.14769107411313 69.02763558027301 10.050000000000143
  endloop
endfacet
facet normal 0.9238795325112835 2.3866344920075536e-16 0.3826834323650976
  outer loop
    vertex 116.14769107411313 69.02763558027301 10.050000000000143
    vertex 115.6381989193395 65.22763558027302 11.280022869977293
    vertex 116.14769107411313 65.22763558027302 10.050000000000143
  endloop
endfacet
facet normal 0.9238795325112835 2.3866344920075536e-16 0.3826834323650976
  outer loop
    vertex 115.6381989193395 65.22763558027302 11.280022869977293
    vertex 116.14769107411313 69.02763558027301 10.050000000000143
    vertex 115.6381989193395 69.02763558027301 11.280022869977282
  endloop
endfacet
facet normal 0.9238795325112835 -6.258137020257917e-16 -0.3826834323650976
  outer loop
    vertex 115.6381989193395 69.02763558027304 13.919977130022994
    vertex 116.14769107411313 65.22763558027302 15.150000000000144
    vertex 115.6381989193395 65.22763558027302 13.919977130023005
  endloop
endfacet
facet normal 0.9238795325112835 -6.258137020257917e-16 -0.3826834323650976
  outer loop
    vertex 116.14769107411313 65.22763558027302 15.150000000000144
    vertex 115.6381989193395 69.02763558027304 13.919977130022994
    vertex 116.14769107411313 69.02763558027304 15.150000000000134
  endloop
endfacet
facet normal 0.7933533402912476 -8.538190073649365e-16 -0.6087614290087044
  outer loop
    vertex 116.14769107411313 69.02763558027304 15.150000000000134
    vertex 116.95817604936234 65.22763558027302 16.206244584051543
    vertex 116.14769107411313 65.22763558027302 15.150000000000144
  endloop
endfacet
facet normal 0.7933533402912476 -8.538190073649365e-16 -0.6087614290087044
  outer loop
    vertex 116.95817604936234 65.22763558027302 16.206244584051543
    vertex 116.14769107411313 69.02763558027304 15.150000000000134
    vertex 116.95817604936234 69.02763558027304 16.20624458405153
  endloop
endfacet
facet normal 0.608761429008717 -1.0236379583548262e-15 -0.793353340291238
  outer loop
    vertex 118.01442063341375 69.02763558027304 17.016729559300778
    vertex 116.95817604936234 65.22763558027302 16.206244584051543
    vertex 116.95817604936234 69.02763558027304 16.20624458405153
  endloop
endfacet
facet normal 0.608761429008717 -1.0236379583548262e-15 -0.793353340291238
  outer loop
    vertex 116.95817604936234 65.22763558027302 16.206244584051543
    vertex 118.01442063341375 69.02763558027304 17.016729559300778
    vertex 118.01442063341375 65.22763558027304 17.016729559300785
  endloop
endfacet
facet normal 0.38268343236507935 -1.1236976741245262e-15 -0.9238795325112912
  outer loop
    vertex 119.24444350339093 69.02763558027304 17.526221714074385
    vertex 118.01442063341375 65.22763558027304 17.016729559300785
    vertex 118.01442063341375 69.02763558027304 17.016729559300778
  endloop
endfacet
facet normal 0.38268343236507935 -1.1236976741245262e-15 -0.9238795325112912
  outer loop
    vertex 118.01442063341375 65.22763558027304 17.016729559300785
    vertex 119.24444350339093 69.02763558027304 17.526221714074385
    vertex 119.24444350339093 65.22763558027304 17.526221714074392
  endloop
endfacet
facet normal 0.13052619222005518 -1.1471792504008458e-15 -0.99144486137381
  outer loop
    vertex 120.56442063341376 69.02763558027304 17.700000000000138
    vertex 119.24444350339093 65.22763558027304 17.526221714074392
    vertex 119.24444350339093 69.02763558027304 17.526221714074385
  endloop
endfacet
facet normal 0.13052619222005518 -1.1471792504008458e-15 -0.99144486137381
  outer loop
    vertex 119.24444350339093 65.22763558027304 17.526221714074392
    vertex 120.56442063341376 69.02763558027304 17.700000000000138
    vertex 120.56442063341376 65.22763558027304 17.700000000000145
  endloop
endfacet
facet normal 1.0 -2.0952420699952459e-16 0.0
  outer loop
    vertex 120.56442063341376 69.02763558027304 17.700000000000138
    vertex 120.56442063341376 65.22763558027304 21.600000000000144
    vertex 120.56442063341376 65.22763558027304 17.700000000000145
  endloop
endfacet
facet normal 1.0 -2.0952420699952459e-16 0.0
  outer loop
    vertex 120.56442063341376 65.22763558027304 21.600000000000144
    vertex 120.56442063341376 69.02763558027304 17.700000000000138
    vertex 120.56442063341376 69.02763558027304 21.600000000000136
  endloop
endfacet
facet normal 7.986100235275211e-17 7.420964427757562e-16 1.0
  outer loop
    vertex 120.56442063341376 65.22763558027304 21.600000000000144
    vertex 85.25348789440432 69.02763558027306 21.600000000000144
    vertex 85.25348789440432 65.22763558027304 21.600000000000144
  endloop
endfacet
facet normal 7.986100235275211e-17 7.420964427757562e-16 1.0
  outer loop
    vertex 85.25348789440432 69.02763558027306 21.600000000000144
    vertex 120.56442063341376 65.22763558027304 21.600000000000144
    vertex 120.56442063341376 69.02763558027304 21.600000000000136
  endloop
endfacet
facet normal -1.0 0.0 0.0
  outer loop
    vertex 75.45348789440425 65.22763558027302 2.0000000000000218
    vertex 75.45348789440425 60.02763558027294 2.5379698342931078e-14
    vertex 75.45348789440425 60.02763558027294 2.0000000000000218
  endloop
endfacet
facet normal -1.0 0.0 0.0
  outer loop
    vertex 75.45348789440425 60.02763558027294 2.5379698342931078e-14
    vertex 75.45348789440425 65.22763558027302 2.0000000000000218
    vertex 75.45348789440425 73.02763558027303 2.8199664825478975e-15
  endloop
endfacet
facet normal -1.0 0.0 0.0
  outer loop
    vertex 75.45348789440425 73.02763558027303 2.8199664825478975e-15
    vertex 75.45348789440425 65.22763558027302 2.0000000000000218
    vertex 75.45348789440425 69.02763558027304 2.00000000000001
  endloop
endfacet
facet normal -1.0 0.0 0.0
  outer loop
    vertex 75.45348789440425 73.02763558027303 2.8199664825478975e-15
    vertex 75.45348789440425 69.02763558027304 2.00000000000001
    vertex 75.45348789440425 73.02763558027303 1.9999999999999991
  endloop
endfacet
facet normal -1.1796053637949916e-16 -1.0 1.2063954720230295e-15
  outer loop
    vertex 111.21960942866184 65.22763558027302 3.3839597790574766e-14
    vertex 85.45348789440423 65.22763558027302 2.0000000000000218
    vertex 85.45348789440423 65.22763558027302 2.5379698342931078e-14
  endloop
endfacet
facet normal -1.1796053637949916e-16 -1.0 1.2063954720230295e-15
  outer loop
    vertex 85.45348789440423 65.22763558027302 2.0000000000000218
    vertex 111.21960942866184 65.22763558027302 3.3839597790574766e-14
    vertex 120.5644206334137 65.22763558027302 4.135208462292348
  endloop
endfacet
facet normal -1.1796053637949916e-16 -1.0 1.2063954720230295e-15
  outer loop
    vertex 85.45348789440423 65.22763558027302 2.0000000000000218
    vertex 120.5644206334137 65.22763558027302 4.135208462292348
    vertex 75.45348789440425 65.22763558027302 2.0000000000000218
  endloop
endfacet
facet normal -1.1796053637949916e-16 -1.0 1.2063954720230295e-15
  outer loop
    vertex 75.45348789440425 65.22763558027302 2.0000000000000218
    vertex 120.5644206334137 65.22763558027302 4.135208462292348
    vertex 75.45348789440425 65.22763558027302 11.800000000000082
  endloop
endfacet
facet normal -1.1796053637949916e-16 -1.0 1.2063954720230295e-15
  outer loop
    vertex 75.45348789440425 65.22763558027302 11.800000000000082
    vertex 120.5644206334137 65.22763558027302 4.135208462292348
    vertex 120.56442063341376 65.22763558027302 7.500000000000136
  endloop
endfacet
facet normal -1.1796053637949916e-16 -1.0 1.2063954720230295e-15
  outer loop
    vertex 75.45348789440425 65.22763558027302 11.800000000000082
    vertex 120.56442063341376 65.22763558027302 7.500000000000136
    vertex 119.24444350339088 65.22763558027302 7.67377828592589
  endloop
endfacet
facet normal -1.1796053637949916e-16 -1.0 1.2063954720230295e-15
  outer loop
    vertex 75.45348789440425 65.22763558027302 11.800000000000082
    vertex 119.24444350339088 65.22763558027302 7.67377828592589
    vertex 118.01442063341375 65.227635580273 8.183270440699502
  endloop
endfacet
facet normal -1.1796053637949916e-16 -1.0 1.2063954720230295e-15
  outer loop
    vertex 75.45348789440425 65.22763558027302 11.800000000000082
    vertex 118.01442063341375 65.227635580273 8.183270440699502
    vertex 116.95817604936234 65.22763558027302 8.993755415948756
  endloop
endfacet
facet normal -1.1796053637949916e-16 -1.0 1.2063954720230295e-15
  outer loop
    vertex 75.45348789440425 65.22763558027302 11.800000000000082
    vertex 116.95817604936234 65.22763558027302 8.993755415948756
    vertex 116.14769107411313 65.22763558027302 10.050000000000143
  endloop
endfacet
facet normal -1.1796053637949916e-16 -1.0 1.2063954720230295e-15
  outer loop
    vertex 75.45348789440425 65.22763558027302 11.800000000000082
    vertex 116.14769107411313 65.22763558027302 10.050000000000143
    vertex 115.6381989193395 65.22763558027302 11.280022869977293
  endloop
endfacet
facet normal -1.1796053637949916e-16 -1.0 1.2063954720230295e-15
  outer loop
    vertex 75.45348789440425 65.22763558027302 11.800000000000082
    vertex 115.6381989193395 65.22763558027302 11.280022869977293
    vertex 115.46442063341374 65.22763558027302 12.600000000000138
  endloop
endfacet
facet normal -1.1796053637949916e-16 -1.0 1.2063954720230295e-15
  outer loop
    vertex 75.45348789440425 65.22763558027302 11.800000000000082
    vertex 115.46442063341374 65.22763558027302 12.600000000000138
    vertex 85.25348789440432 65.22763558027304 21.600000000000144
  endloop
endfacet
facet normal -1.1796053637949916e-16 -1.0 1.2063954720230295e-15
  outer loop
    vertex 85.25348789440432 65.22763558027304 21.600000000000144
    vertex 115.46442063341374 65.22763558027302 12.600000000000138
    vertex 115.6381989193395 65.22763558027302 13.919977130023005
  endloop
endfacet
facet normal -1.1796053637949916e-16 -1.0 1.2063954720230295e-15
  outer loop
    vertex 85.25348789440432 65.22763558027304 21.600000000000144
    vertex 115.6381989193395 65.22763558027302 13.919977130023005
    vertex 116.14769107411313 65.22763558027302 15.150000000000144
  endloop
endfacet
facet normal -1.1796053637949916e-16 -1.0 1.2063954720230295e-15
  outer loop
    vertex 85.25348789440432 65.22763558027304 21.600000000000144
    vertex 116.14769107411313 65.22763558027302 15.150000000000144
    vertex 116.95817604936234 65.22763558027302 16.206244584051543
  endloop
endfacet
facet normal -1.1796053637949916e-16 -1.0 1.2063954720230295e-15
  outer loop
    vertex 85.25348789440432 65.22763558027304 21.600000000000144
    vertex 116.95817604936234 65.22763558027302 16.206244584051543
    vertex 118.01442063341375 65.22763558027304 17.016729559300785
  endloop
endfacet
facet normal -1.1796053637949916e-16 -1.0 1.2063954720230295e-15
  outer loop
    vertex 85.25348789440432 65.22763558027304 21.600000000000144
    vertex 118.01442063341375 65.22763558027304 17.016729559300785
    vertex 119.24444350339093 65.22763558027304 17.526221714074392
  endloop
endfacet
facet normal -1.1796053637949916e-16 -1.0 1.2063954720230295e-15
  outer loop
    vertex 85.25348789440432 65.22763558027304 21.600000000000144
    vertex 119.24444350339093 65.22763558027304 17.526221714074392
    vertex 120.56442063341376 65.22763558027304 17.700000000000145
  endloop
endfacet
facet normal -1.1796053637949916e-16 -1.0 1.2063954720230295e-15
  outer loop
    vertex 85.25348789440432 65.22763558027304 21.600000000000144
    vertex 120.56442063341376 65.22763558027304 17.700000000000145
    vertex 120.56442063341376 65.22763558027304 21.600000000000144
  endloop
endfacet
facet normal -1.1279865930191502e-16 1.0 -2.8199664825479085e-15
  outer loop
    vertex 75.45348789440425 73.02763558027303 1.9999999999999991
    vertex 110.45348789440422 73.02763558027303 1.4099832412739488e-14
    vertex 75.45348789440425 73.02763558027303 2.8199664825478975e-15
  endloop
endfacet
facet normal -1.1279865930191502e-16 1.0 -2.8199664825479085e-15
  outer loop
    vertex 110.45348789440422 73.02763558027303 1.4099832412739488e-14
    vertex 75.45348789440425 73.02763558027303 1.9999999999999991
    vertex 110.45348789440422 73.02763558027303 1.9999999999999991
  endloop
endfacet
facet normal 0.0 2.819966482547903e-15 1.0
  outer loop
    vertex 110.45348789440422 69.02763558027304 2.00000000000001
    vertex 75.45348789440425 73.02763558027303 1.9999999999999991
    vertex 75.45348789440425 69.02763558027304 2.00000000000001
  endloop
endfacet
facet normal 0.0 2.819966482547903e-15 1.0
  outer loop
    vertex 75.45348789440425 73.02763558027303 1.9999999999999991
    vertex 110.45348789440422 69.02763558027304 2.00000000000001
    vertex 110.45348789440422 73.02763558027303 1.9999999999999991
  endloop
endfacet
facet normal 1.0 1.1279865930191504e-16 -2.120589590051612e-31
  outer loop
    vertex 110.45348789440422 73.02763558027303 1.4099832412739488e-14
    vertex 110.45348789440422 69.02763558027304 2.00000000000001
    vertex 110.45348789440422 69.02763558027304 2.5379698342931078e-14
  endloop
endfacet
facet normal 1.0 1.1279865930191504e-16 -2.120589590051612e-31
  outer loop
    vertex 110.45348789440422 69.02763558027304 2.00000000000001
    vertex 110.45348789440422 73.02763558027303 1.4099832412739488e-14
    vertex 110.45348789440422 73.02763558027303 1.9999999999999991
  endloop
endfacet
facet normal 0.0 -1.0 0.0
  outer loop
    vertex 85.45348789440423 60.02763558027294 2.0000000000000218
    vertex 75.45348789440425 60.02763558027294 2.5379698342931078e-14
    vertex 85.45348789440423 60.02763558027294 2.5379698342931078e-14
  endloop
endfacet
facet normal 0.0 -1.0 0.0
  outer loop
    vertex 75.45348789440425 60.02763558027294 2.5379698342931078e-14
    vertex 85.45348789440423 60.02763558027294 2.0000000000000218
    vertex 75.45348789440425 60.02763558027294 2.0000000000000218
  endloop
endfacet
facet normal 1.0 0.0 0.0
  outer loop
    vertex 85.45348789440423 65.22763558027302 2.5379698342931078e-14
    vertex 85.45348789440423 60.02763558027294 2.0000000000000218
    vertex 85.45348789440423 60.02763558027294 2.5379698342931078e-14
  endloop
endfacet
facet normal 1.0 0.0 0.0
  outer loop
    vertex 85.45348789440423 60.02763558027294 2.0000000000000218
    vertex 85.45348789440423 65.22763558027302 2.5379698342931078e-14
    vertex 85.45348789440423 65.22763558027302 2.0000000000000218
  endloop
endfacet
facet normal 0.0 0.0 1.0
  outer loop
    vertex 85.45348789440423 60.02763558027294 2.0000000000000218
    vertex 75.45348789440425 65.22763558027302 2.0000000000000218
    vertex 75.45348789440425 60.02763558027294 2.0000000000000218
  endloop
endfacet
facet normal 0.0 0.0 1.0
  outer loop
    vertex 75.45348789440425 65.22763558027302 2.0000000000000218
    vertex 85.45348789440423 60.02763558027294 2.0000000000000218
    vertex 85.45348789440423 65.22763558027302 2.0000000000000218
  endloop
endfacet
facet normal 0.9914448613738092 1.936924445804933e-16 0.1305261922200616
  outer loop
    vertex 115.6381989193395 69.02763558027301 11.280022869977282
    vertex 115.46442063341374 65.22763558027302 12.600000000000138
    vertex 115.6381989193395 65.22763558027302 11.280022869977293
  endloop
endfacet
facet normal 0.9914448613738092 1.936924445804933e-16 0.1305261922200616
  outer loop
    vertex 115.46442063341374 65.22763558027302 12.600000000000138
    vertex 115.6381989193395 69.02763558027301 11.280022869977282
    vertex 115.46442063341374 69.02763558027301 12.600000000000138
  endloop
endfacet
facet normal 0.9914448613738092 -1.949570009037674e-16 -0.13052619222006107
  outer loop
    vertex 115.46442063341374 69.02763558027301 12.600000000000138
    vertex 115.6381989193395 65.22763558027302 13.919977130023005
    vertex 115.46442063341374 65.22763558027302 12.600000000000138
  endloop
endfacet
facet normal 0.9914448613738092 -1.949570009037674e-16 -0.13052619222006107
  outer loop
    vertex 115.6381989193395 65.22763558027302 13.919977130023005
    vertex 115.46442063341374 69.02763558027301 12.600000000000138
    vertex 115.6381989193395 69.02763558027304 13.919977130022994
  endloop
endfacet
facet normal -0.21486178267512032 0.9766444667050899 4.098882328205852e-18
  outer loop
    vertex 103.46442063341377 69.02763558027301 11.60000000000014
    vertex 113.46442063341375 71.22763558027303 13.600000000000136
    vertex 113.46442063341375 71.22763558027303 11.600000000000128
  endloop
endfacet
facet normal -0.21486178267512032 0.9766444667050899 4.098882328205852e-18
  outer loop
    vertex 113.46442063341375 71.22763558027303 13.600000000000136
    vertex 103.46442063341377 69.02763558027301 11.60000000000014
    vertex 103.46442063341377 69.02763558027301 13.600000000000136
  endloop
endfacet
facet normal 1.0 0.0 0.0
  outer loop
    vertex 117.66442063341374 71.22763558027303 11.600000000000128
    vertex 117.66442063341374 69.22763558027302 13.600000000000136
    vertex 117.66442063341374 69.22763558027302 11.600000000000128
  endloop
endfacet
facet normal 1.0 0.0 0.0
  outer loop
    vertex 117.66442063341374 69.22763558027302 13.600000000000136
    vertex 117.66442063341374 71.22763558027303 11.600000000000128
    vertex 117.66442063341374 71.22763558027303 13.600000000000136
  endloop
endfacet
facet normal 0.0 1.0 0.0
  outer loop
    vertex 113.46442063341375 71.22763558027303 13.600000000000136
    vertex 117.66442063341374 71.22763558027303 11.600000000000128
    vertex 113.46442063341375 71.22763558027303 11.600000000000128
  endloop
endfacet
facet normal 0.0 1.0 0.0
  outer loop
    vertex 117.66442063341374 71.22763558027303 11.600000000000128
    vertex 113.46442063341375 71.22763558027303 13.600000000000136
    vertex 117.66442063341374 71.22763558027303 13.600000000000136
  endloop
endfacet
facet normal 0.0 -1.0 0.0
  outer loop
    vertex 117.66442063341374 69.22763558027302 13.600000000000136
    vertex 115.46442063341374 69.22763558027302 11.600000000000128
    vertex 117.66442063341374 69.22763558027302 11.600000000000128
  endloop
endfacet
facet normal 0.0 -1.0 0.0
  outer loop
    vertex 115.46442063341374 69.22763558027302 11.600000000000128
    vertex 117.66442063341374 69.22763558027302 13.600000000000136
    vertex 115.46442063341374 69.22763558027302 13.600000000000136
  endloop
endfacet
facet normal 1.0 0.0 0.0
  outer loop
    vertex 115.46442063341374 69.22763558027302 11.600000000000128
    vertex 115.46442063341374 69.02763558027301 12.600000000000138
    vertex 115.46442063341374 69.02763558027301 11.600000000000128
  endloop
endfacet
facet normal 1.0 0.0 0.0
  outer loop
    vertex 115.46442063341374 69.02763558027301 12.600000000000138
    vertex 115.46442063341374 69.22763558027302 11.600000000000128
    vertex 115.46442063341374 69.02763558027301 13.600000000000136
  endloop
endfacet
facet normal 1.0 0.0 0.0
  outer loop
    vertex 115.46442063341374 69.02763558027301 13.600000000000136
    vertex 115.46442063341374 69.22763558027302 11.600000000000128
    vertex 115.46442063341374 69.22763558027302 13.600000000000136
  endloop
endfacet
facet normal -2.062368681826076e-16 7.072569466928166e-18 -1.0
  outer loop
    vertex 113.46442063341375 71.22763558027303 11.600000000000128
    vertex 114.46442063341374 69.02763558027301 11.600000000000128
    vertex 103.46442063341377 69.02763558027301 11.60000000000014
  endloop
endfacet
facet normal -2.062368681826076e-16 7.072569466928166e-18 -1.0
  outer loop
    vertex 114.46442063341374 69.02763558027301 11.600000000000128
    vertex 113.46442063341375 71.22763558027303 11.600000000000128
    vertex 117.66442063341374 71.22763558027303 11.600000000000128
  endloop
endfacet
facet normal -2.062368681826076e-16 7.072569466928166e-18 -1.0
  outer loop
    vertex 114.46442063341374 69.02763558027301 11.600000000000128
    vertex 117.66442063341374 71.22763558027303 11.600000000000128
    vertex 115.46442063341374 69.22763558027302 11.600000000000128
  endloop
endfacet
facet normal -2.062368681826076e-16 7.072569466928166e-18 -1.0
  outer loop
    vertex 115.46442063341374 69.22763558027302 11.600000000000128
    vertex 117.66442063341374 71.22763558027303 11.600000000000128
    vertex 117.66442063341374 69.22763558027302 11.600000000000128
  endloop
endfacet
facet normal -2.062368681826076e-16 7.072569466928166e-18 -1.0
  outer loop
    vertex 115.46442063341374 69.02763558027301 11.600000000000128
    vertex 114.46442063341374 69.02763558027301 11.600000000000128
    vertex 115.46442063341374 69.22763558027302 11.600000000000128
  endloop
endfacet
facet normal 0.0 0.0 1.0
  outer loop
    vertex 114.46442063341374 69.02763558027301 13.600000000000136
    vertex 113.46442063341375 71.22763558027303 13.600000000000136
    vertex 103.46442063341377 69.02763558027301 13.600000000000136
  endloop
endfacet
facet normal 0.0 0.0 1.0
  outer loop
    vertex 113.46442063341375 71.22763558027303 13.600000000000136
    vertex 114.46442063341374 69.02763558027301 13.600000000000136
    vertex 117.66442063341374 71.22763558027303 13.600000000000136
  endloop
endfacet
facet normal 0.0 0.0 1.0
  outer loop
    vertex 117.66442063341374 71.22763558027303 13.600000000000136
    vertex 114.46442063341374 69.02763558027301 13.600000000000136
    vertex 115.46442063341374 69.22763558027302 13.600000000000136
  endloop
endfacet
facet normal 0.0 0.0 1.0
  outer loop
    vertex 115.46442063341374 69.22763558027302 13.600000000000136
    vertex 114.46442063341374 69.02763558027301 13.600000000000136
    vertex 115.46442063341374 69.02763558027301 13.600000000000136
  endloop
endfacet
facet normal 0.0 0.0 1.0
  outer loop
    vertex 117.66442063341374 71.22763558027303 13.600000000000136
    vertex 115.46442063341374 69.22763558027302 13.600000000000136
    vertex 117.66442063341374 69.22763558027302 13.600000000000136
  endloop
endfacet
facet normal -1.0 0.0 0.0
  outer loop
    vertex 75.45348789440425 69.02763558027306 11.800000000000082
    vertex 75.45348789440425 65.22763558027302 2.0000000000000218
    vertex 75.45348789440425 65.22763558027302 11.800000000000082
  endloop
endfacet
facet normal -1.0 0.0 0.0
  outer loop
    vertex 75.45348789440425 65.22763558027302 2.0000000000000218
    vertex 75.45348789440425 69.02763558027306 11.800000000000082
    vertex 75.45348789440425 69.02763558027304 2.00000000000001
  endloop
endfacet
facet normal 0.0 0.0 -1.0
  outer loop
    vertex 78.58415465074408 67.36057272086529 13.000000000000012
    vertex 78.58415465074408 66.89469843968075 13.000000000000012
    vertex 78.55348789440421 67.12763558027302 13.000000000000012
  endloop
endfacet
facet normal 0.0 0.0 -1.0
  outer loop
    vertex 78.58415465074408 66.89469843968075 13.000000000000012
    vertex 78.58415465074408 67.36057272086529 13.000000000000012
    vertex 78.67406503099826 67.57763558027303 13.000000000000012
  endloop
endfacet
facet normal 0.0 0.0 -1.0
  outer loop
    vertex 78.58415465074408 66.89469843968075 13.000000000000012
    vertex 78.67406503099826 67.57763558027303 13.000000000000012
    vertex 78.67406503099826 66.67763558027303 13.000000000000012
  endloop
endfacet
facet normal 0.0 0.0 -1.0
  outer loop
    vertex 78.67406503099826 66.67763558027303 13.000000000000012
    vertex 78.67406503099826 67.57763558027303 13.000000000000012
    vertex 78.81709179133635 67.76403168334092 13.000000000000012
  endloop
endfacet
facet normal 0.0 0.0 -1.0
  outer loop
    vertex 78.67406503099826 66.67763558027303 13.000000000000012
    vertex 78.81709179133635 67.76403168334092 13.000000000000012
    vertex 78.81709179133635 66.49123947720514 13.000000000000012
  endloop
endfacet
facet normal 0.0 0.0 -1.0
  outer loop
    vertex 78.81709179133635 66.49123947720514 13.000000000000012
    vertex 78.81709179133635 67.76403168334092 13.000000000000012
    vertex 79.00348789440424 67.90705844367902 13.000000000000012
  endloop
endfacet
facet normal 0.0 0.0 -1.0
  outer loop
    vertex 78.81709179133635 66.49123947720514 13.000000000000012
    vertex 79.00348789440424 67.90705844367902 13.000000000000012
    vertex 79.00348789440424 66.34821271686704 13.000000000000012
  endloop
endfacet
facet normal 0.0 0.0 -1.0
  outer loop
    vertex 79.00348789440424 66.34821271686704 13.000000000000012
    vertex 79.00348789440424 67.90705844367902 13.000000000000012
    vertex 79.22055075381196 67.99696882393317 13.000000000000012
  endloop
endfacet
facet normal 0.0 0.0 -1.0
  outer loop
    vertex 79.00348789440424 66.34821271686704 13.000000000000012
    vertex 79.22055075381196 67.99696882393317 13.000000000000012
    vertex 79.22055075381196 66.25830233661286 13.000000000000012
  endloop
endfacet
facet normal 0.0 0.0 -1.0
  outer loop
    vertex 79.22055075381196 66.25830233661286 13.000000000000012
    vertex 79.22055075381196 67.99696882393317 13.000000000000012
    vertex 79.45348789440423 68.02763558027301 13.000000000000012
  endloop
endfacet
facet normal 0.0 0.0 -1.0
  outer loop
    vertex 79.22055075381196 66.25830233661286 13.000000000000012
    vertex 79.45348789440423 68.02763558027301 13.000000000000012
    vertex 79.45348789440423 66.22763558027302 13.000000000000012
  endloop
endfacet
facet normal 0.0 0.0 -1.0
  outer loop
    vertex 79.45348789440423 66.22763558027302 13.000000000000012
    vertex 79.45348789440423 68.02763558027301 13.000000000000012
    vertex 79.68642503499652 67.99696882393317 13.000000000000012
  endloop
endfacet
facet normal 0.0 0.0 -1.0
  outer loop
    vertex 79.45348789440423 66.22763558027302 13.000000000000012
    vertex 79.68642503499652 67.99696882393317 13.000000000000012
    vertex 79.68642503499652 66.25830233661286 13.000000000000012
  endloop
endfacet
facet normal 0.0 0.0 -1.0
  outer loop
    vertex 79.68642503499652 66.25830233661286 13.000000000000012
    vertex 79.68642503499652 67.99696882393317 13.000000000000012
    vertex 79.90348789440422 67.90705844367902 13.000000000000012
  endloop
endfacet
facet normal 0.0 0.0 -1.0
  outer loop
    vertex 79.68642503499652 66.25830233661286 13.000000000000012
    vertex 79.90348789440422 67.90705844367902 13.000000000000012
    vertex 79.90348789440422 66.34821271686704 13.000000000000012
  endloop
endfacet
facet normal 0.0 0.0 -1.0
  outer loop
    vertex 79.90348789440422 66.34821271686704 13.000000000000012
    vertex 79.90348789440422 67.90705844367902 13.000000000000012
    vertex 80.08988399747211 67.76403168334092 13.000000000000012
  endloop
endfacet
facet normal 0.0 0.0 -1.0
  outer loop
    vertex 79.90348789440422 66.34821271686704 13.000000000000012
    vertex 80.08988399747211 67.76403168334092 13.000000000000012
    vertex 80.08988399747211 66.49123947720514 13.000000000000012
  endloop
endfacet
facet normal 0.0 0.0 -1.0
  outer loop
    vertex 80.08988399747211 66.49123947720514 13.000000000000012
    vertex 80.08988399747211 67.76403168334092 13.000000000000012
    vertex 80.23291075781022 67.57763558027303 13.000000000000012
  endloop
endfacet
facet normal 0.0 0.0 -1.0
  outer loop
    vertex 80.08988399747211 66.49123947720514 13.000000000000012
    vertex 80.23291075781022 67.57763558027303 13.000000000000012
    vertex 80.23291075781022 66.67763558027303 13.000000000000012
  endloop
endfacet
facet normal 0.0 0.0 -1.0
  outer loop
    vertex 80.23291075781022 66.67763558027303 13.000000000000012
    vertex 80.23291075781022 67.57763558027303 13.000000000000012
    vertex 80.3228211380644 67.36057272086529 13.000000000000012
  endloop
endfacet
facet normal 0.0 0.0 -1.0
  outer loop
    vertex 80.23291075781022 66.67763558027303 13.000000000000012
    vertex 80.3228211380644 67.36057272086529 13.000000000000012
    vertex 80.3228211380644 66.89469843968075 13.000000000000012
  endloop
endfacet
facet normal 0.0 0.0 -1.0
  outer loop
    vertex 80.3228211380644 66.89469843968075 13.000000000000012
    vertex 80.3228211380644 67.36057272086529 13.000000000000012
    vertex 80.35348789440425 67.12763558027302 13.000000000000012
  endloop
endfacet
facet normal 0.991444861373799 -0.13052619222013867 -1.261468591283668e-30
  outer loop
    vertex 78.58415465074408 67.36057272086529 1.4099832412739488e-14
    vertex 78.55348789440421 67.12763558027302 13.000000000000012
    vertex 78.55348789440421 67.12763558027302 1.4099832412739488e-14
  endloop
endfacet
facet normal 0.991444861373799 -0.13052619222013867 -1.261468591283668e-30
  outer loop
    vertex 78.55348789440421 67.12763558027302 13.000000000000012
    vertex 78.58415465074408 67.36057272086529 1.4099832412739488e-14
    vertex 78.58415465074408 67.36057272086529 13.000000000000012
  endloop
endfacet
facet normal 0.991444861373799 0.13052619222013867 -1.261468591283668e-30
  outer loop
    vertex 78.55348789440421 67.12763558027302 1.4099832412739488e-14
    vertex 78.58415465074408 66.89469843968075 13.000000000000012
    vertex 78.58415465074408 66.89469843968075 1.4099832412739488e-14
  endloop
endfacet
facet normal 0.991444861373799 0.13052619222013867 -1.261468591283668e-30
  outer loop
    vertex 78.58415465074408 66.89469843968075 13.000000000000012
    vertex 78.55348789440421 67.12763558027302 1.4099832412739488e-14
    vertex 78.55348789440421 67.12763558027302 13.000000000000012
  endloop
endfacet
facet normal 0.9238795325112585 0.382683432365158 0.0
  outer loop
    vertex 78.58415465074408 66.89469843968075 1.4099832412739488e-14
    vertex 78.67406503099826 66.67763558027303 13.000000000000012
    vertex 78.67406503099826 66.67763558027303 1.4099832412739488e-14
  endloop
endfacet
facet normal 0.9238795325112585 0.382683432365158 0.0
  outer loop
    vertex 78.67406503099826 66.67763558027303 13.000000000000012
    vertex 78.58415465074408 66.89469843968075 1.4099832412739488e-14
    vertex 78.58415465074408 66.89469843968075 13.000000000000012
  endloop
endfacet
facet normal 0.7933533402912482 0.6087614290087038 0.0
  outer loop
    vertex 78.67406503099826 66.67763558027303 1.4099832412739488e-14
    vertex 78.81709179133635 66.49123947720514 13.000000000000012
    vertex 78.81709179133635 66.49123947720514 1.4099832412739488e-14
  endloop
endfacet
facet normal 0.7933533402912482 0.6087614290087038 0.0
  outer loop
    vertex 78.81709179133635 66.49123947720514 13.000000000000012
    vertex 78.67406503099826 66.67763558027303 1.4099832412739488e-14
    vertex 78.67406503099826 66.67763558027303 13.000000000000012
  endloop
endfacet
facet normal 0.6087614290087189 0.7933533402912365 0.0
  outer loop
    vertex 78.81709179133635 66.49123947720514 13.000000000000012
    vertex 79.00348789440424 66.34821271686704 1.4099832412739488e-14
    vertex 78.81709179133635 66.49123947720514 1.4099832412739488e-14
  endloop
endfacet
facet normal 0.6087614290087189 0.7933533402912365 0.0
  outer loop
    vertex 79.00348789440424 66.34821271686704 1.4099832412739488e-14
    vertex 78.81709179133635 66.49123947720514 13.000000000000012
    vertex 79.00348789440424 66.34821271686704 13.000000000000012
  endloop
endfacet
facet normal 0.38268343236513047 0.92387953251127 0.0
  outer loop
    vertex 79.00348789440424 66.34821271686704 13.000000000000012
    vertex 79.22055075381196 66.25830233661286 1.4099832412739488e-14
    vertex 79.00348789440424 66.34821271686704 1.4099832412739488e-14
  endloop
endfacet
facet normal 0.38268343236513047 0.92387953251127 0.0
  outer loop
    vertex 79.22055075381196 66.25830233661286 1.4099832412739488e-14
    vertex 79.00348789440424 66.34821271686704 13.000000000000012
    vertex 79.22055075381196 66.25830233661286 13.000000000000012
  endloop
endfacet
facet normal 0.13052619222003808 0.9914448613738123 0.0
  outer loop
    vertex 79.22055075381196 66.25830233661286 13.000000000000012
    vertex 79.45348789440423 66.22763558027302 1.4099832412739488e-14
    vertex 79.22055075381196 66.25830233661286 1.4099832412739488e-14
  endloop
endfacet
facet normal 0.13052619222003808 0.9914448613738123 0.0
  outer loop
    vertex 79.45348789440423 66.22763558027302 1.4099832412739488e-14
    vertex 79.22055075381196 66.25830233661286 13.000000000000012
    vertex 79.45348789440423 66.22763558027302 13.000000000000012
  endloop
endfacet
facet normal -0.13052619222003808 0.9914448613738123 0.0
  outer loop
    vertex 79.45348789440423 66.22763558027302 13.000000000000012
    vertex 79.68642503499652 66.25830233661286 1.4099832412739488e-14
    vertex 79.45348789440423 66.22763558027302 1.4099832412739488e-14
  endloop
endfacet
facet normal -0.13052619222003808 0.9914448613738123 0.0
  outer loop
    vertex 79.68642503499652 66.25830233661286 1.4099832412739488e-14
    vertex 79.45348789440423 66.22763558027302 13.000000000000012
    vertex 79.68642503499652 66.25830233661286 13.000000000000012
  endloop
endfacet
facet normal -0.38268343236513047 0.92387953251127 0.0
  outer loop
    vertex 79.68642503499652 66.25830233661286 13.000000000000012
    vertex 79.90348789440422 66.34821271686704 1.4099832412739488e-14
    vertex 79.68642503499652 66.25830233661286 1.4099832412739488e-14
  endloop
endfacet
facet normal -0.38268343236513047 0.92387953251127 0.0
  outer loop
    vertex 79.90348789440422 66.34821271686704 1.4099832412739488e-14
    vertex 79.68642503499652 66.25830233661286 13.000000000000012
    vertex 79.90348789440422 66.34821271686704 13.000000000000012
  endloop
endfacet
facet normal -0.6087614290087189 0.7933533402912365 0.0
  outer loop
    vertex 79.90348789440422 66.34821271686704 13.000000000000012
    vertex 80.08988399747211 66.49123947720514 1.4099832412739488e-14
    vertex 79.90348789440422 66.34821271686704 1.4099832412739488e-14
  endloop
endfacet
facet normal -0.6087614290087189 0.7933533402912365 0.0
  outer loop
    vertex 80.08988399747211 66.49123947720514 1.4099832412739488e-14
    vertex 79.90348789440422 66.34821271686704 13.000000000000012
    vertex 80.08988399747211 66.49123947720514 13.000000000000012
  endloop
endfacet
facet normal -0.7933533402912482 0.6087614290087038 0.0
  outer loop
    vertex 80.23291075781022 66.67763558027303 13.000000000000012
    vertex 80.08988399747211 66.49123947720514 1.4099832412739488e-14
    vertex 80.08988399747211 66.49123947720514 13.000000000000012
  endloop
endfacet
facet normal -0.7933533402912482 0.6087614290087038 0.0
  outer loop
    vertex 80.08988399747211 66.49123947720514 1.4099832412739488e-14
    vertex 80.23291075781022 66.67763558027303 13.000000000000012
    vertex 80.23291075781022 66.67763558027303 1.4099832412739488e-14
  endloop
endfacet
facet normal -0.9238795325112585 0.382683432365158 0.0
  outer loop
    vertex 80.3228211380644 66.89469843968075 13.000000000000012
    vertex 80.23291075781022 66.67763558027303 1.4099832412739488e-14
    vertex 80.23291075781022 66.67763558027303 13.000000000000012
  endloop
endfacet
facet normal -0.9238795325112585 0.382683432365158 0.0
  outer loop
    vertex 80.23291075781022 66.67763558027303 1.4099832412739488e-14
    vertex 80.3228211380644 66.89469843968075 13.000000000000012
    vertex 80.3228211380644 66.89469843968075 1.4099832412739488e-14
  endloop
endfacet
facet normal -0.9914448613737991 0.1305261922201387 0.0
  outer loop
    vertex 80.35348789440425 67.12763558027302 13.000000000000012
    vertex 80.3228211380644 66.89469843968075 1.4099832412739488e-14
    vertex 80.3228211380644 66.89469843968075 13.000000000000012
  endloop
endfacet
facet normal -0.9914448613737991 0.1305261922201387 0.0
  outer loop
    vertex 80.3228211380644 66.89469843968075 1.4099832412739488e-14
    vertex 80.35348789440425 67.12763558027302 13.000000000000012
    vertex 80.35348789440425 67.12763558027302 1.4099832412739488e-14
  endloop
endfacet
facet normal -0.9914448613737991 -0.1305261922201387 0.0
  outer loop
    vertex 80.3228211380644 67.36057272086529 13.000000000000012
    vertex 80.35348789440425 67.12763558027302 1.4099832412739488e-14
    vertex 80.35348789440425 67.12763558027302 13.000000000000012
  endloop
endfacet
facet normal -0.9914448613737991 -0.1305261922201387 0.0
  outer loop
    vertex 80.35348789440425 67.12763558027302 1.4099832412739488e-14
    vertex 80.3228211380644 67.36057272086529 13.000000000000012
    vertex 80.3228211380644 67.36057272086529 1.4099832412739488e-14
  endloop
endfacet
facet normal -0.9238795325112585 -0.382683432365158 0.0
  outer loop
    vertex 80.23291075781022 67.57763558027303 13.000000000000012
    vertex 80.3228211380644 67.36057272086529 1.4099832412739488e-14
    vertex 80.3228211380644 67.36057272086529 13.000000000000012
  endloop
endfacet
facet normal -0.9238795325112585 -0.382683432365158 0.0
  outer loop
    vertex 80.3228211380644 67.36057272086529 1.4099832412739488e-14
    vertex 80.23291075781022 67.57763558027303 13.000000000000012
    vertex 80.23291075781022 67.57763558027303 1.4099832412739488e-14
  endloop
endfacet
facet normal -0.7933533402912482 -0.6087614290087038 0.0
  outer loop
    vertex 80.08988399747211 67.76403168334092 13.000000000000012
    vertex 80.23291075781022 67.57763558027303 1.4099832412739488e-14
    vertex 80.23291075781022 67.57763558027303 13.000000000000012
  endloop
endfacet
facet normal -0.7933533402912482 -0.6087614290087038 0.0
  outer loop
    vertex 80.23291075781022 67.57763558027303 1.4099832412739488e-14
    vertex 80.08988399747211 67.76403168334092 13.000000000000012
    vertex 80.08988399747211 67.76403168334092 1.4099832412739488e-14
  endloop
endfacet
facet normal -0.6087614290087189 -0.7933533402912365 0.0
  outer loop
    vertex 80.08988399747211 67.76403168334092 13.000000000000012
    vertex 79.90348789440422 67.90705844367902 1.4099832412739488e-14
    vertex 80.08988399747211 67.76403168334092 1.4099832412739488e-14
  endloop
endfacet
facet normal -0.6087614290087189 -0.7933533402912365 0.0
  outer loop
    vertex 79.90348789440422 67.90705844367902 1.4099832412739488e-14
    vertex 80.08988399747211 67.76403168334092 13.000000000000012
    vertex 79.90348789440422 67.90705844367902 13.000000000000012
  endloop
endfacet
facet normal -0.38268343236513047 -0.92387953251127 0.0
  outer loop
    vertex 79.90348789440422 67.90705844367902 13.000000000000012
    vertex 79.68642503499652 67.99696882393317 1.4099832412739488e-14
    vertex 79.90348789440422 67.90705844367902 1.4099832412739488e-14
  endloop
endfacet
facet normal -0.38268343236513047 -0.92387953251127 0.0
  outer loop
    vertex 79.68642503499652 67.99696882393317 1.4099832412739488e-14
    vertex 79.90348789440422 67.90705844367902 13.000000000000012
    vertex 79.68642503499652 67.99696882393317 13.000000000000012
  endloop
endfacet
facet normal -0.13052619222003808 -0.9914448613738123 0.0
  outer loop
    vertex 79.68642503499652 67.99696882393317 13.000000000000012
    vertex 79.45348789440423 68.02763558027301 1.4099832412739488e-14
    vertex 79.68642503499652 67.99696882393317 1.4099832412739488e-14
  endloop
endfacet
facet normal -0.13052619222003808 -0.9914448613738123 0.0
  outer loop
    vertex 79.45348789440423 68.02763558027301 1.4099832412739488e-14
    vertex 79.68642503499652 67.99696882393317 13.000000000000012
    vertex 79.45348789440423 68.02763558027301 13.000000000000012
  endloop
endfacet
facet normal 0.13052619222003808 -0.9914448613738123 0.0
  outer loop
    vertex 79.45348789440423 68.02763558027301 13.000000000000012
    vertex 79.22055075381196 67.99696882393317 1.4099832412739488e-14
    vertex 79.45348789440423 68.02763558027301 1.4099832412739488e-14
  endloop
endfacet
facet normal 0.13052619222003808 -0.9914448613738123 0.0
  outer loop
    vertex 79.22055075381196 67.99696882393317 1.4099832412739488e-14
    vertex 79.45348789440423 68.02763558027301 13.000000000000012
    vertex 79.22055075381196 67.99696882393317 13.000000000000012
  endloop
endfacet
facet normal 0.38268343236513047 -0.92387953251127 0.0
  outer loop
    vertex 79.22055075381196 67.99696882393317 13.000000000000012
    vertex 79.00348789440424 67.90705844367902 1.4099832412739488e-14
    vertex 79.22055075381196 67.99696882393317 1.4099832412739488e-14
  endloop
endfacet
facet normal 0.38268343236513047 -0.92387953251127 0.0
  outer loop
    vertex 79.00348789440424 67.90705844367902 1.4099832412739488e-14
    vertex 79.22055075381196 67.99696882393317 13.000000000000012
    vertex 79.00348789440424 67.90705844367902 13.000000000000012
  endloop
endfacet
facet normal 0.6087614290087189 -0.7933533402912365 0.0
  outer loop
    vertex 79.00348789440424 67.90705844367902 13.000000000000012
    vertex 78.81709179133635 67.76403168334092 1.4099832412739488e-14
    vertex 79.00348789440424 67.90705844367902 1.4099832412739488e-14
  endloop
endfacet
facet normal 0.6087614290087189 -0.7933533402912365 0.0
  outer loop
    vertex 78.81709179133635 67.76403168334092 1.4099832412739488e-14
    vertex 79.00348789440424 67.90705844367902 13.000000000000012
    vertex 78.81709179133635 67.76403168334092 13.000000000000012
  endloop
endfacet
facet normal 0.7933533402912482 -0.6087614290087038 0.0
  outer loop
    vertex 78.81709179133635 67.76403168334092 1.4099832412739488e-14
    vertex 78.67406503099826 67.57763558027303 13.000000000000012
    vertex 78.67406503099826 67.57763558027303 1.4099832412739488e-14
  endloop
endfacet
facet normal 0.7933533402912482 -0.6087614290087038 0.0
  outer loop
    vertex 78.67406503099826 67.57763558027303 13.000000000000012
    vertex 78.81709179133635 67.76403168334092 1.4099832412739488e-14
    vertex 78.81709179133635 67.76403168334092 13.000000000000012
  endloop
endfacet
facet normal 0.9238795325112585 -0.382683432365158 0.0
  outer loop
    vertex 78.67406503099826 67.57763558027303 1.4099832412739488e-14
    vertex 78.58415465074408 67.36057272086529 13.000000000000012
    vertex 78.58415465074408 67.36057272086529 1.4099832412739488e-14
  endloop
endfacet
facet normal 0.9238795325112585 -0.382683432365158 0.0
  outer loop
    vertex 78.58415465074408 67.36057272086529 13.000000000000012
    vertex 78.67406503099826 67.57763558027303 1.4099832412739488e-14
    vertex 78.67406503099826 67.57763558027303 13.000000000000012
  endloop
endfacet
facet normal 0.0 0.0 -1.0
  outer loop
    vertex 108.89508738975353 67.36057272086529 20.000000000000036
    vertex 108.89508738975353 66.89469843968074 20.000000000000036
    vertex 108.86442063341366 67.12763558027302 20.000000000000036
  endloop
endfacet
facet normal 0.0 0.0 -1.0
  outer loop
    vertex 108.89508738975353 66.89469843968074 20.000000000000036
    vertex 108.89508738975353 67.36057272086529 20.000000000000036
    vertex 108.98499777000771 67.57763558027301 20.000000000000036
  endloop
endfacet
facet normal 0.0 0.0 -1.0
  outer loop
    vertex 108.89508738975353 66.89469843968074 20.000000000000036
    vertex 108.98499777000771 67.57763558027301 20.000000000000036
    vertex 108.98499777000771 66.67763558027303 20.000000000000036
  endloop
endfacet
facet normal 0.0 0.0 -1.0
  outer loop
    vertex 108.98499777000771 66.67763558027303 20.000000000000036
    vertex 108.98499777000771 67.57763558027301 20.000000000000036
    vertex 109.12802453034581 67.7640316833409 20.000000000000036
  endloop
endfacet
facet normal 0.0 0.0 -1.0
  outer loop
    vertex 108.98499777000771 66.67763558027303 20.000000000000036
    vertex 109.12802453034581 67.7640316833409 20.000000000000036
    vertex 109.12802453034581 66.49123947720514 20.000000000000036
  endloop
endfacet
facet normal 0.0 0.0 -1.0
  outer loop
    vertex 109.12802453034581 66.49123947720514 20.000000000000036
    vertex 109.12802453034581 67.7640316833409 20.000000000000036
    vertex 109.3144206334137 67.90705844367902 20.000000000000036
  endloop
endfacet
facet normal 0.0 0.0 -1.0
  outer loop
    vertex 109.12802453034581 66.49123947720514 20.000000000000036
    vertex 109.3144206334137 67.90705844367902 20.000000000000036
    vertex 109.3144206334137 66.34821271686701 20.000000000000036
  endloop
endfacet
facet normal 0.0 0.0 -1.0
  outer loop
    vertex 109.3144206334137 66.34821271686701 20.000000000000036
    vertex 109.3144206334137 67.90705844367902 20.000000000000036
    vertex 109.53148349282141 67.99696882393317 20.000000000000036
  endloop
endfacet
facet normal 0.0 0.0 -1.0
  outer loop
    vertex 109.3144206334137 66.34821271686701 20.000000000000036
    vertex 109.53148349282141 67.99696882393317 20.000000000000036
    vertex 109.53148349282141 66.25830233661286 20.000000000000036
  endloop
endfacet
facet normal 0.0 0.0 -1.0
  outer loop
    vertex 109.53148349282141 66.25830233661286 20.000000000000036
    vertex 109.53148349282141 67.99696882393317 20.000000000000036
    vertex 109.76442063341369 68.02763558027301 20.000000000000036
  endloop
endfacet
facet normal 0.0 0.0 -1.0
  outer loop
    vertex 109.53148349282141 66.25830233661286 20.000000000000036
    vertex 109.76442063341369 68.02763558027301 20.000000000000036
    vertex 109.76442063341369 66.22763558027302 20.000000000000036
  endloop
endfacet
facet normal 0.0 0.0 -1.0
  outer loop
    vertex 109.76442063341369 66.22763558027302 20.000000000000036
    vertex 109.76442063341369 68.02763558027301 20.000000000000036
    vertex 109.99735777400596 67.99696882393317 20.000000000000036
  endloop
endfacet
facet normal 0.0 0.0 -1.0
  outer loop
    vertex 109.76442063341369 66.22763558027302 20.000000000000036
    vertex 109.99735777400596 67.99696882393317 20.000000000000036
    vertex 109.99735777400596 66.25830233661286 20.000000000000036
  endloop
endfacet
facet normal 0.0 0.0 -1.0
  outer loop
    vertex 109.99735777400596 66.25830233661286 20.000000000000036
    vertex 109.99735777400596 67.99696882393317 20.000000000000036
    vertex 110.21442063341367 67.90705844367902 20.000000000000036
  endloop
endfacet
facet normal 0.0 0.0 -1.0
  outer loop
    vertex 109.99735777400596 66.25830233661286 20.000000000000036
    vertex 110.21442063341367 67.90705844367902 20.000000000000036
    vertex 110.21442063341367 66.34821271686701 20.000000000000036
  endloop
endfacet
facet normal 0.0 0.0 -1.0
  outer loop
    vertex 110.21442063341367 66.34821271686701 20.000000000000036
    vertex 110.21442063341367 67.90705844367902 20.000000000000036
    vertex 110.40081673648157 67.7640316833409 20.000000000000036
  endloop
endfacet
facet normal 0.0 0.0 -1.0
  outer loop
    vertex 110.21442063341367 66.34821271686701 20.000000000000036
    vertex 110.40081673648157 67.7640316833409 20.000000000000036
    vertex 110.40081673648157 66.49123947720514 20.000000000000036
  endloop
endfacet
facet normal 0.0 0.0 -1.0
  outer loop
    vertex 110.40081673648157 66.49123947720514 20.000000000000036
    vertex 110.40081673648157 67.7640316833409 20.000000000000036
    vertex 110.54384349681966 67.57763558027301 20.000000000000036
  endloop
endfacet
facet normal 0.0 0.0 -1.0
  outer loop
    vertex 110.40081673648157 66.49123947720514 20.000000000000036
    vertex 110.54384349681966 67.57763558027301 20.000000000000036
    vertex 110.54384349681966 66.67763558027303 20.000000000000036
  endloop
endfacet
facet normal 0.0 0.0 -1.0
  outer loop
    vertex 110.54384349681966 66.67763558027303 20.000000000000036
    vertex 110.54384349681966 67.57763558027301 20.000000000000036
    vertex 110.63375387707384 67.36057272086529 20.000000000000036
  endloop
endfacet
facet normal 0.0 0.0 -1.0
  outer loop
    vertex 110.54384349681966 66.67763558027303 20.000000000000036
    vertex 110.63375387707384 67.36057272086529 20.000000000000036
    vertex 110.63375387707384 66.89469843968074 20.000000000000036
  endloop
endfacet
facet normal 0.0 0.0 -1.0
  outer loop
    vertex 110.63375387707384 66.89469843968074 20.000000000000036
    vertex 110.63375387707384 67.36057272086529 20.000000000000036
    vertex 110.66442063341371 67.12763558027302 20.000000000000036
  endloop
endfacet
facet normal -0.991444861373799 0.13052619222013867 1.261468591283668e-30
  outer loop
    vertex 110.66442063341371 67.12763558027302 20.000000000000036
    vertex 110.63375387707384 66.89469843968074 3.665956427312267e-14
    vertex 110.63375387707384 66.89469843968074 20.000000000000036
  endloop
endfacet
facet normal -0.991444861373799 0.13052619222013867 1.261468591283668e-30
  outer loop
    vertex 110.63375387707384 66.89469843968074 3.665956427312267e-14
    vertex 110.66442063341371 67.12763558027302 20.000000000000036
    vertex 110.66442063341371 67.12763558027302 3.665956427312267e-14
  endloop
endfacet
facet normal -0.991444861373799 -0.13052619222013867 1.261468591283668e-30
  outer loop
    vertex 110.63375387707384 67.36057272086529 20.000000000000036
    vertex 110.66442063341371 67.12763558027302 3.665956427312267e-14
    vertex 110.66442063341371 67.12763558027302 20.000000000000036
  endloop
endfacet
facet normal -0.991444861373799 -0.13052619222013867 1.261468591283668e-30
  outer loop
    vertex 110.66442063341371 67.12763558027302 3.665956427312267e-14
    vertex 110.63375387707384 67.36057272086529 20.000000000000036
    vertex 110.63375387707384 67.36057272086529 3.665956427312267e-14
  endloop
endfacet
facet normal -0.9238795325112585 -0.382683432365158 0.0
  outer loop
    vertex 110.54384349681966 67.57763558027301 20.000000000000036
    vertex 110.63375387707384 67.36057272086529 3.665956427312267e-14
    vertex 110.63375387707384 67.36057272086529 20.000000000000036
  endloop
endfacet
facet normal -0.9238795325112585 -0.382683432365158 0.0
  outer loop
    vertex 110.63375387707384 67.36057272086529 3.665956427312267e-14
    vertex 110.54384349681966 67.57763558027301 20.000000000000036
    vertex 110.54384349681966 67.57763558027301 3.665956427312267e-14
  endloop
endfacet
facet normal -0.7933533402912482 -0.6087614290087038 0.0
  outer loop
    vertex 110.40081673648157 67.7640316833409 20.000000000000036
    vertex 110.54384349681966 67.57763558027301 3.665956427312267e-14
    vertex 110.54384349681966 67.57763558027301 20.000000000000036
  endloop
endfacet
facet normal -0.7933533402912482 -0.6087614290087038 0.0
  outer loop
    vertex 110.54384349681966 67.57763558027301 3.665956427312267e-14
    vertex 110.40081673648157 67.7640316833409 20.000000000000036
    vertex 110.40081673648157 67.7640316833409 3.665956427312267e-14
  endloop
endfacet
facet normal -0.6087614290087189 -0.7933533402912365 0.0
  outer loop
    vertex 110.40081673648157 67.7640316833409 20.000000000000036
    vertex 110.21442063341367 67.90705844367902 3.665956427312267e-14
    vertex 110.40081673648157 67.7640316833409 3.665956427312267e-14
  endloop
endfacet
facet normal -0.6087614290087189 -0.7933533402912365 0.0
  outer loop
    vertex 110.21442063341367 67.90705844367902 3.665956427312267e-14
    vertex 110.40081673648157 67.7640316833409 20.000000000000036
    vertex 110.21442063341367 67.90705844367902 20.000000000000036
  endloop
endfacet
facet normal -0.38268343236513047 -0.92387953251127 0.0
  outer loop
    vertex 110.21442063341367 67.90705844367902 20.000000000000036
    vertex 109.99735777400596 67.99696882393317 3.665956427312267e-14
    vertex 110.21442063341367 67.90705844367902 3.665956427312267e-14
  endloop
endfacet
facet normal -0.38268343236513047 -0.92387953251127 0.0
  outer loop
    vertex 109.99735777400596 67.99696882393317 3.665956427312267e-14
    vertex 110.21442063341367 67.90705844367902 20.000000000000036
    vertex 109.99735777400596 67.99696882393317 20.000000000000036
  endloop
endfacet
facet normal -0.13052619222003808 -0.9914448613738123 0.0
  outer loop
    vertex 109.99735777400596 67.99696882393317 20.000000000000036
    vertex 109.76442063341369 68.02763558027301 3.665956427312267e-14
    vertex 109.99735777400596 67.99696882393317 3.665956427312267e-14
  endloop
endfacet
facet normal -0.13052619222003808 -0.9914448613738123 0.0
  outer loop
    vertex 109.76442063341369 68.02763558027301 3.665956427312267e-14
    vertex 109.99735777400596 67.99696882393317 20.000000000000036
    vertex 109.76442063341369 68.02763558027301 20.000000000000036
  endloop
endfacet
facet normal 0.13052619222003808 -0.9914448613738123 0.0
  outer loop
    vertex 109.76442063341369 68.02763558027301 20.000000000000036
    vertex 109.53148349282141 67.99696882393317 3.665956427312267e-14
    vertex 109.76442063341369 68.02763558027301 3.665956427312267e-14
  endloop
endfacet
facet normal 0.13052619222003808 -0.9914448613738123 0.0
  outer loop
    vertex 109.53148349282141 67.99696882393317 3.665956427312267e-14
    vertex 109.76442063341369 68.02763558027301 20.000000000000036
    vertex 109.53148349282141 67.99696882393317 20.000000000000036
  endloop
endfacet
facet normal 0.38268343236513047 -0.92387953251127 0.0
  outer loop
    vertex 109.53148349282141 67.99696882393317 20.000000000000036
    vertex 109.3144206334137 67.90705844367902 3.665956427312267e-14
    vertex 109.53148349282141 67.99696882393317 3.665956427312267e-14
  endloop
endfacet
facet normal 0.38268343236513047 -0.92387953251127 0.0
  outer loop
    vertex 109.3144206334137 67.90705844367902 3.665956427312267e-14
    vertex 109.53148349282141 67.99696882393317 20.000000000000036
    vertex 109.3144206334137 67.90705844367902 20.000000000000036
  endloop
endfacet
facet normal 0.6087614290087189 -0.7933533402912365 0.0
  outer loop
    vertex 109.3144206334137 67.90705844367902 20.000000000000036
    vertex 109.12802453034581 67.7640316833409 3.665956427312267e-14
    vertex 109.3144206334137 67.90705844367902 3.665956427312267e-14
  endloop
endfacet
facet normal 0.6087614290087189 -0.7933533402912365 0.0
  outer loop
    vertex 109.12802453034581 67.7640316833409 3.665956427312267e-14
    vertex 109.3144206334137 67.90705844367902 20.000000000000036
    vertex 109.12802453034581 67.7640316833409 20.000000000000036
  endloop
endfacet
facet normal 0.7933533402912482 -0.6087614290087038 0.0
  outer loop
    vertex 109.12802453034581 67.7640316833409 3.665956427312267e-14
    vertex 108.98499777000771 67.57763558027301 20.000000000000036
    vertex 108.98499777000771 67.57763558027301 3.665956427312267e-14
  endloop
endfacet
facet normal 0.7933533402912482 -0.6087614290087038 0.0
  outer loop
    vertex 108.98499777000771 67.57763558027301 20.000000000000036
    vertex 109.12802453034581 67.7640316833409 3.665956427312267e-14
    vertex 109.12802453034581 67.7640316833409 20.000000000000036
  endloop
endfacet
facet normal 0.9238795325112585 -0.382683432365158 0.0
  outer loop
    vertex 108.98499777000771 67.57763558027301 3.665956427312267e-14
    vertex 108.89508738975353 67.36057272086529 20.000000000000036
    vertex 108.89508738975353 67.36057272086529 3.665956427312267e-14
  endloop
endfacet
facet normal 0.9238795325112585 -0.382683432365158 0.0
  outer loop
    vertex 108.89508738975353 67.36057272086529 20.000000000000036
    vertex 108.98499777000771 67.57763558027301 3.665956427312267e-14
    vertex 108.98499777000771 67.57763558027301 20.000000000000036
  endloop
endfacet
facet normal 0.9914448613737991 -0.1305261922201387 0.0
  outer loop
    vertex 108.89508738975353 67.36057272086529 3.665956427312267e-14
    vertex 108.86442063341366 67.12763558027302 20.000000000000036
    vertex 108.86442063341366 67.12763558027302 3.665956427312267e-14
  endloop
endfacet
facet normal 0.9914448613737991 -0.1305261922201387 0.0
  outer loop
    vertex 108.86442063341366 67.12763558027302 20.000000000000036
    vertex 108.89508738975353 67.36057272086529 3.665956427312267e-14
    vertex 108.89508738975353 67.36057272086529 20.000000000000036
  endloop
endfacet
facet normal 0.9914448613737991 0.1305261922201387 0.0
  outer loop
    vertex 108.86442063341366 67.12763558027302 3.665956427312267e-14
    vertex 108.89508738975353 66.89469843968074 20.000000000000036
    vertex 108.89508738975353 66.89469843968074 3.665956427312267e-14
  endloop
endfacet
facet normal 0.9914448613737991 0.1305261922201387 0.0
  outer loop
    vertex 108.89508738975353 66.89469843968074 20.000000000000036
    vertex 108.86442063341366 67.12763558027302 3.665956427312267e-14
    vertex 108.86442063341366 67.12763558027302 20.000000000000036
  endloop
endfacet
facet normal 0.9238795325112585 0.382683432365158 0.0
  outer loop
    vertex 108.89508738975353 66.89469843968074 3.665956427312267e-14
    vertex 108.98499777000771 66.67763558027303 20.000000000000036
    vertex 108.98499777000771 66.67763558027303 3.665956427312267e-14
  endloop
endfacet
facet normal 0.9238795325112585 0.382683432365158 0.0
  outer loop
    vertex 108.98499777000771 66.67763558027303 20.000000000000036
    vertex 108.89508738975353 66.89469843968074 3.665956427312267e-14
    vertex 108.89508738975353 66.89469843968074 20.000000000000036
  endloop
endfacet
facet normal 0.7933533402912482 0.6087614290087038 0.0
  outer loop
    vertex 108.98499777000771 66.67763558027303 3.665956427312267e-14
    vertex 109.12802453034581 66.49123947720514 20.000000000000036
    vertex 109.12802453034581 66.49123947720514 3.665956427312267e-14
  endloop
endfacet
facet normal 0.7933533402912482 0.6087614290087038 0.0
  outer loop
    vertex 109.12802453034581 66.49123947720514 20.000000000000036
    vertex 108.98499777000771 66.67763558027303 3.665956427312267e-14
    vertex 108.98499777000771 66.67763558027303 20.000000000000036
  endloop
endfacet
facet normal 0.6087614290087189 0.7933533402912365 0.0
  outer loop
    vertex 109.12802453034581 66.49123947720514 20.000000000000036
    vertex 109.3144206334137 66.34821271686701 3.665956427312267e-14
    vertex 109.12802453034581 66.49123947720514 3.665956427312267e-14
  endloop
endfacet
facet normal 0.6087614290087189 0.7933533402912365 0.0
  outer loop
    vertex 109.3144206334137 66.34821271686701 3.665956427312267e-14
    vertex 109.12802453034581 66.49123947720514 20.000000000000036
    vertex 109.3144206334137 66.34821271686701 20.000000000000036
  endloop
endfacet
facet normal 0.38268343236513047 0.92387953251127 0.0
  outer loop
    vertex 109.3144206334137 66.34821271686701 20.000000000000036
    vertex 109.53148349282141 66.25830233661286 3.665956427312267e-14
    vertex 109.3144206334137 66.34821271686701 3.665956427312267e-14
  endloop
endfacet
facet normal 0.38268343236513047 0.92387953251127 0.0
  outer loop
    vertex 109.53148349282141 66.25830233661286 3.665956427312267e-14
    vertex 109.3144206334137 66.34821271686701 20.000000000000036
    vertex 109.53148349282141 66.25830233661286 20.000000000000036
  endloop
endfacet
facet normal 0.13052619222003808 0.9914448613738123 0.0
  outer loop
    vertex 109.53148349282141 66.25830233661286 20.000000000000036
    vertex 109.76442063341369 66.22763558027302 3.665956427312267e-14
    vertex 109.53148349282141 66.25830233661286 3.665956427312267e-14
  endloop
endfacet
facet normal 0.13052619222003808 0.9914448613738123 0.0
  outer loop
    vertex 109.76442063341369 66.22763558027302 3.665956427312267e-14
    vertex 109.53148349282141 66.25830233661286 20.000000000000036
    vertex 109.76442063341369 66.22763558027302 20.000000000000036
  endloop
endfacet
facet normal -0.13052619222003808 0.9914448613738123 0.0
  outer loop
    vertex 109.76442063341369 66.22763558027302 20.000000000000036
    vertex 109.99735777400596 66.25830233661286 3.665956427312267e-14
    vertex 109.76442063341369 66.22763558027302 3.665956427312267e-14
  endloop
endfacet
facet normal -0.13052619222003808 0.9914448613738123 0.0
  outer loop
    vertex 109.99735777400596 66.25830233661286 3.665956427312267e-14
    vertex 109.76442063341369 66.22763558027302 20.000000000000036
    vertex 109.99735777400596 66.25830233661286 20.000000000000036
  endloop
endfacet
facet normal -0.38268343236513047 0.92387953251127 0.0
  outer loop
    vertex 109.99735777400596 66.25830233661286 20.000000000000036
    vertex 110.21442063341367 66.34821271686701 3.665956427312267e-14
    vertex 109.99735777400596 66.25830233661286 3.665956427312267e-14
  endloop
endfacet
facet normal -0.38268343236513047 0.92387953251127 0.0
  outer loop
    vertex 110.21442063341367 66.34821271686701 3.665956427312267e-14
    vertex 109.99735777400596 66.25830233661286 20.000000000000036
    vertex 110.21442063341367 66.34821271686701 20.000000000000036
  endloop
endfacet
facet normal -0.6087614290087189 0.7933533402912365 0.0
  outer loop
    vertex 110.21442063341367 66.34821271686701 20.000000000000036
    vertex 110.40081673648157 66.49123947720514 3.665956427312267e-14
    vertex 110.21442063341367 66.34821271686701 3.665956427312267e-14
  endloop
endfacet
facet normal -0.6087614290087189 0.7933533402912365 0.0
  outer loop
    vertex 110.40081673648157 66.49123947720514 3.665956427312267e-14
    vertex 110.21442063341367 66.34821271686701 20.000000000000036
    vertex 110.40081673648157 66.49123947720514 20.000000000000036
  endloop
endfacet
facet normal -0.7933533402912482 0.6087614290087038 0.0
  outer loop
    vertex 110.54384349681966 66.67763558027303 20.000000000000036
    vertex 110.40081673648157 66.49123947720514 3.665956427312267e-14
    vertex 110.40081673648157 66.49123947720514 20.000000000000036
  endloop
endfacet
facet normal -0.7933533402912482 0.6087614290087038 0.0
  outer loop
    vertex 110.40081673648157 66.49123947720514 3.665956427312267e-14
    vertex 110.54384349681966 66.67763558027303 20.000000000000036
    vertex 110.54384349681966 66.67763558027303 3.665956427312267e-14
  endloop
endfacet
facet normal -0.9238795325112585 0.382683432365158 0.0
  outer loop
    vertex 110.63375387707384 66.89469843968074 20.000000000000036
    vertex 110.54384349681966 66.67763558027303 3.665956427312267e-14
    vertex 110.54384349681966 66.67763558027303 20.000000000000036
  endloop
endfacet
facet normal -0.9238795325112585 0.382683432365158 0.0
  outer loop
    vertex 110.54384349681966 66.67763558027303 3.665956427312267e-14
    vertex 110.63375387707384 66.89469843968074 20.000000000000036
    vertex 110.63375387707384 66.89469843968074 3.665956427312267e-14
  endloop
endfacet
facet normal 6.571537987319981e-16 1.0 -8.897454250305145e-16
  outer loop
    vertex 110.45348789440422 69.02763558027304 2.00000000000001
    vertex 111.21960942866184 69.02763558027301 3.3839597790574766e-14
    vertex 110.45348789440422 69.02763558027304 2.5379698342931078e-14
  endloop
endfacet
facet normal 6.571537987319981e-16 1.0 -8.897454250305145e-16
  outer loop
    vertex 111.21960942866184 69.02763558027301 3.3839597790574766e-14
    vertex 110.45348789440422 69.02763558027304 2.00000000000001
    vertex 120.5644206334137 69.02763558027301 4.135208462292348
  endloop
endfacet
facet normal 6.571537987319981e-16 1.0 -8.897454250305145e-16
  outer loop
    vertex 115.6381989193395 69.02763558027301 11.280022869977282
    vertex 115.46442063341374 69.02763558027301 11.600000000000128
    vertex 115.46442063341374 69.02763558027301 12.600000000000138
  endloop
endfacet
facet normal 6.571537987319981e-16 1.0 -8.897454250305145e-16
  outer loop
    vertex 115.46442063341374 69.02763558027301 11.600000000000128
    vertex 115.6381989193395 69.02763558027301 11.280022869977282
    vertex 114.46442063341374 69.02763558027301 11.600000000000128
  endloop
endfacet
facet normal 6.571537987319981e-16 1.0 -8.897454250305145e-16
  outer loop
    vertex 75.45348789440425 69.02763558027306 11.800000000000082
    vertex 110.45348789440422 69.02763558027304 2.00000000000001
    vertex 75.45348789440425 69.02763558027304 2.00000000000001
  endloop
endfacet
facet normal 6.571537987319981e-16 1.0 -8.897454250305145e-16
  outer loop
    vertex 110.45348789440422 69.02763558027304 2.00000000000001
    vertex 75.45348789440425 69.02763558027306 11.800000000000082
    vertex 120.5644206334137 69.02763558027301 4.135208462292348
  endloop
endfacet
facet normal 6.571537987319981e-16 1.0 -8.897454250305145e-16
  outer loop
    vertex 120.5644206334137 69.02763558027301 4.135208462292348
    vertex 75.45348789440425 69.02763558027306 11.800000000000082
    vertex 120.56442063341376 69.02763558027301 7.500000000000136
  endloop
endfacet
facet normal 6.571537987319981e-16 1.0 -8.897454250305145e-16
  outer loop
    vertex 120.56442063341376 69.02763558027301 7.500000000000136
    vertex 75.45348789440425 69.02763558027306 11.800000000000082
    vertex 119.24444350339088 69.02763558027301 7.67377828592589
  endloop
endfacet
facet normal 6.571537987319981e-16 1.0 -8.897454250305145e-16
  outer loop
    vertex 119.24444350339088 69.02763558027301 7.67377828592589
    vertex 75.45348789440425 69.02763558027306 11.800000000000082
    vertex 118.01442063341375 69.02763558027301 8.183270440699502
  endloop
endfacet
facet normal 6.571537987319981e-16 1.0 -8.897454250305145e-16
  outer loop
    vertex 118.01442063341375 69.02763558027301 8.183270440699502
    vertex 75.45348789440425 69.02763558027306 11.800000000000082
    vertex 116.95817604936234 69.02763558027301 8.993755415948746
  endloop
endfacet
facet normal 6.571537987319981e-16 1.0 -8.897454250305145e-16
  outer loop
    vertex 116.95817604936234 69.02763558027301 8.993755415948746
    vertex 75.45348789440425 69.02763558027306 11.800000000000082
    vertex 116.14769107411313 69.02763558027301 10.050000000000143
  endloop
endfacet
facet normal 6.571537987319981e-16 1.0 -8.897454250305145e-16
  outer loop
    vertex 116.14769107411313 69.02763558027301 10.050000000000143
    vertex 75.45348789440425 69.02763558027306 11.800000000000082
    vertex 115.6381989193395 69.02763558027301 11.280022869977282
  endloop
endfacet
facet normal 6.571537987319981e-16 1.0 -8.897454250305145e-16
  outer loop
    vertex 115.6381989193395 69.02763558027301 11.280022869977282
    vertex 75.45348789440425 69.02763558027306 11.800000000000082
    vertex 103.46442063341377 69.02763558027301 11.60000000000014
  endloop
endfacet
facet normal 6.571537987319981e-16 1.0 -8.897454250305145e-16
  outer loop
    vertex 115.6381989193395 69.02763558027301 11.280022869977282
    vertex 103.46442063341377 69.02763558027301 11.60000000000014
    vertex 114.46442063341374 69.02763558027301 11.600000000000128
  endloop
endfacet
facet normal 6.571537987319981e-16 1.0 -8.897454250305145e-16
  outer loop
    vertex 103.46442063341377 69.02763558027301 11.60000000000014
    vertex 75.45348789440425 69.02763558027306 11.800000000000082
    vertex 103.46442063341377 69.02763558027301 13.600000000000136
  endloop
endfacet
facet normal 6.571537987319981e-16 1.0 -8.897454250305145e-16
  outer loop
    vertex 103.46442063341377 69.02763558027301 13.600000000000136
    vertex 75.45348789440425 69.02763558027306 11.800000000000082
    vertex 85.25348789440432 69.02763558027306 21.600000000000144
  endloop
endfacet
facet normal 6.571537987319981e-16 1.0 -8.897454250305145e-16
  outer loop
    vertex 103.46442063341377 69.02763558027301 13.600000000000136
    vertex 85.25348789440432 69.02763558027306 21.600000000000144
    vertex 114.46442063341374 69.02763558027301 13.600000000000136
  endloop
endfacet
facet normal 6.571537987319981e-16 1.0 -8.897454250305145e-16
  outer loop
    vertex 114.46442063341374 69.02763558027301 13.600000000000136
    vertex 85.25348789440432 69.02763558027306 21.600000000000144
    vertex 115.46442063341374 69.02763558027301 13.600000000000136
  endloop
endfacet
facet normal 6.571537987319981e-16 1.0 -8.897454250305145e-16
  outer loop
    vertex 115.46442063341374 69.02763558027301 13.600000000000136
    vertex 85.25348789440432 69.02763558027306 21.600000000000144
    vertex 115.6381989193395 69.02763558027304 13.919977130022994
  endloop
endfacet
facet normal 6.571537987319981e-16 1.0 -8.897454250305145e-16
  outer loop
    vertex 115.6381989193395 69.02763558027304 13.919977130022994
    vertex 85.25348789440432 69.02763558027306 21.600000000000144
    vertex 116.14769107411313 69.02763558027304 15.150000000000134
  endloop
endfacet
facet normal 6.571537987319981e-16 1.0 -8.897454250305145e-16
  outer loop
    vertex 116.14769107411313 69.02763558027304 15.150000000000134
    vertex 85.25348789440432 69.02763558027306 21.600000000000144
    vertex 116.95817604936234 69.02763558027304 16.20624458405153
  endloop
endfacet
facet normal 6.571537987319981e-16 1.0 -8.897454250305145e-16
  outer loop
    vertex 116.95817604936234 69.02763558027304 16.20624458405153
    vertex 85.25348789440432 69.02763558027306 21.600000000000144
    vertex 118.01442063341375 69.02763558027304 17.016729559300778
  endloop
endfacet
facet normal 6.571537987319981e-16 1.0 -8.897454250305145e-16
  outer loop
    vertex 118.01442063341375 69.02763558027304 17.016729559300778
    vertex 85.25348789440432 69.02763558027306 21.600000000000144
    vertex 119.24444350339093 69.02763558027304 17.526221714074385
  endloop
endfacet
facet normal 6.571537987319981e-16 1.0 -8.897454250305145e-16
  outer loop
    vertex 119.24444350339093 69.02763558027304 17.526221714074385
    vertex 85.25348789440432 69.02763558027306 21.600000000000144
    vertex 120.56442063341376 69.02763558027304 17.700000000000138
  endloop
endfacet
facet normal 6.571537987319981e-16 1.0 -8.897454250305145e-16
  outer loop
    vertex 120.56442063341376 69.02763558027304 17.700000000000138
    vertex 85.25348789440432 69.02763558027306 21.600000000000144
    vertex 120.56442063341376 69.02763558027304 21.600000000000136
  endloop
endfacet
facet normal 6.571537987319981e-16 1.0 -8.897454250305145e-16
  outer loop
    vertex 115.6381989193395 69.02763558027304 13.919977130022994
    vertex 115.46442063341374 69.02763558027301 12.600000000000138
    vertex 115.46442063341374 69.02763558027301 13.600000000000136
  endloop
endfacet
facet normal -0.7071067811865471 5.4804408903454936e-17 0.707106781186548
  outer loop
    vertex 85.25348789440432 65.22763558027304 21.600000000000144
    vertex 75.45348789440425 69.02763558027306 11.800000000000082
    vertex 75.45348789440425 65.22763558027302 11.800000000000082
  endloop
endfacet
facet normal -0.7071067811865471 5.4804408903454936e-17 0.707106781186548
  outer loop
    vertex 75.45348789440425 69.02763558027306 11.800000000000082
    vertex 85.25348789440432 65.22763558027304 21.600000000000144
    vertex 85.25348789440432 69.02763558027306 21.600000000000144
  endloop
endfacet
facet normal 0.40466369202807395 0.0 -0.9144655796443124
  outer loop
    vertex 120.5644206334137 69.02763558027301 4.135208462292348
    vertex 111.21960942866184 65.22763558027302 3.3839597790574766e-14
    vertex 111.21960942866184 69.02763558027301 3.3839597790574766e-14
  endloop
endfacet
facet normal 0.40466369202807395 0.0 -0.9144655796443124
  outer loop
    vertex 111.21960942866184 65.22763558027302 3.3839597790574766e-14
    vertex 120.5644206334137 69.02763558027301 4.135208462292348
    vertex 120.5644206334137 65.22763558027302 4.135208462292348
  endloop
endfacet
endsolid Untitled-5c5714dc
